<?xml version="1.0" encoding="UTF-8" standalone="no"?>
<!-- Created with Inkscape (http://www.inkscape.org/) -->

<svg
   xmlns:dc="http://purl.org/dc/elements/1.1/"
   xmlns:cc="http://creativecommons.org/ns#"
   xmlns:rdf="http://www.w3.org/1999/02/22-rdf-syntax-ns#"
   xmlns:svg="http://www.w3.org/2000/svg"
   xmlns="http://www.w3.org/2000/svg"
   xmlns:sodipodi="http://sodipodi.sourceforge.net/DTD/sodipodi-0.dtd"
   xmlns:inkscape="http://www.inkscape.org/namespaces/inkscape"
   width="210mm"
   height="297mm"
   viewBox="0 0 210 297"
   version="1.1"
   id="svg8"
   inkscape:version="0.92.3 (2405546, 2018-03-11)"
   sodipodi:docname="R05.svg">
  <defs
     id="defs2" />
  <sodipodi:namedview
     id="base"
     pagecolor="#ffffff"
     bordercolor="#666666"
     borderopacity="1.0"
     inkscape:pageopacity="0.0"
     inkscape:pageshadow="2"
     inkscape:zoom="0.35"
     inkscape:cx="437.13631"
     inkscape:cy="499.47819"
     inkscape:document-units="mm"
     inkscape:current-layer="layer1"
     showgrid="false"
     inkscape:window-width="1600"
     inkscape:window-height="845"
     inkscape:window-x="0"
     inkscape:window-y="27"
     inkscape:window-maximized="1" />
  <metadata
     id="metadata5">
    <rdf:RDF>
      <cc:Work
         rdf:about="">
        <dc:format>image/svg+xml</dc:format>
        <dc:type
           rdf:resource="http://purl.org/dc/dcmitype/StillImage" />
        <dc:title />
      </cc:Work>
    </rdf:RDF>
  </metadata>
  <g
     inkscape:label="Layer 1"
     inkscape:groupmode="layer"
     id="layer1">
    <path
       id="path16"
       d="m 24.003763,159.33155 c 5.577326,-7.44076 0.405877,-0.63603 22.047272,-16.63106 0.256345,-0.18947 0.14525,0.0905 0.174205,0.1162 0.02298,0.0204 0.111971,-0.0573 0.0871,-0.0388 -7.08296,5.28415 -14.1756,10.55802 -21.263398,15.83704 4.220963,-7.5083 0.135605,-0.26707 21.568239,-16.04039 0.03926,-0.0288 0.191395,-0.0194 0.152416,0.01 -7.072265,5.29191 -14.163614,10.56379 -21.285172,15.80315 -0.03926,0.0289 -0.04979,-0.10634 -0.01092,-0.13556 7.133888,-5.3627 14.320756,-10.66938 21.481135,-16.00408 -7.071464,5.25885 -28.324707,20.99378 -21.214402,15.77652 7.237317,-5.31045 14.380869,-10.72125 21.595453,-16.05612 0.04705,-0.0348 0.223802,-0.0786 0.176916,-0.0435 -7.03365,5.24645 -28.192769,20.92392 -21.155888,15.6809 7.152423,-5.32911 14.308966,-10.65384 21.463449,-15.98078 7.968822,-5.28858 -24.479263,18.90415 -20.869246,15.54364 0.191469,-0.15066 0.353912,-0.33403 0.550267,-0.47965 36.111157,-26.78137 21.444244,-15.88394 0.40516,-0.2078 1.371317,-7.70517 13.587761,-20.08011 21.694715,-16.00812 -7.137423,5.25532 -14.240117,10.54816 -21.412266,15.76595 -0.04843,0.0352 -0.08083,-0.12837 -0.03307,-0.16433 7.13931,-5.37492 14.322322,-10.70393 21.522491,-16.01425 0.04839,-0.0357 0.236553,-0.0343 0.188538,0.002 -7.056188,5.30155 -28.13179,21.29878 -21.247923,15.82087 6.978819,-5.55346 14.355302,-10.69848 21.532961,-16.04772 -7.0731,5.24053 -14.122956,10.50596 -21.219302,15.72157 -0.04604,0.0338 0.03625,-0.10236 0.03995,-0.15538 0.0014,-0.018 -0.04122,-0.0376 -0.02567,-0.0493 7.147109,-5.31521 14.318857,-10.60416 21.479067,-15.90541 0.04662,-0.0345 0.187924,-0.13646 0.141398,-0.10185 -7.09052,5.27325 -14.182256,10.5452 -21.273387,15.81779 57.512354,-42.75764 0.220218,-0.14605 0.322653,-0.2272 7.192146,-5.35444 14.384291,-10.70889 21.576438,-16.06334 0.05164,-0.0161 0.107316,-0.0244 0.154923,-0.0485 0.612436,-0.30878 -0.252989,0.0329 0.529015,-0.25306 -7.048565,5.24462 -14.097124,10.48924 -21.145684,15.73385 0.240296,-0.37231 0.59417,-0.68488 0.680241,-1.11708 -6.423164,-5.99368 -0.143413,-0.11516 21.274686,-15.91096 0.04132,-0.0304 0.09065,0.0736 0.143443,0.0649 0.06918,-0.0113 0.110882,-0.077 0.166332,-0.11545 -7.085296,5.26199 -14.15062,10.54531 -21.255886,15.78595 -0.08526,0.0628 0.123765,-0.16341 0.185636,-0.24513 0.04608,-0.1087 0.07103,-0.22653 0.138337,-0.3261 0.05449,-0.0806 0.152398,-0.131 0.219709,-0.20353 0.05652,-0.0609 0.08257,-0.14463 0.150535,-0.19542 7.173171,-5.35872 14.162821,-10.92152 21.565374,-16.02751 7.258229,-5.00645 -23.614176,23.55588 -21.17871,15.67895 57.195352,-42.53163 0.337417,-0.21966 0.257032,-0.16014 -0.03628,0.0269 0.04146,-0.0763 0.0522,-0.1172 0.0564,-0.2155 -0.134187,-0.1213 0.101898,-0.32128 0.186884,-0.18997 0.287637,-0.44112 0.258788,-0.69553 -0.0021,-0.0188 -0.04667,-0.0305 -0.03601,-0.047 0.02961,-0.0457 0.08845,-0.0703 0.133902,-0.10417 7.166658,-5.33904 14.33494,-10.67637 21.502413,-16.01456 8.738154,-2.94162 0.496015,-0.17636 -21.256527,15.76209 -0.03824,0.0281 -0.0244,-0.0855 -0.03346,-0.12889 -0.01478,-0.0704 -0.05999,-0.14332 -0.03799,-0.21222 0.02057,-0.0644 0.104569,-0.0965 0.152952,-0.14778 0.06,-0.0636 0.114628,-0.13107 0.171937,-0.1966 0.08989,-0.0926 0.178685,-0.18593 0.269659,-0.27763 0.552756,-0.55717 -0.104569,-0.62191 0.250419,-1.14098 0.35971,-0.30938 0.242494,-0.35794 0.179661,-0.6983 -0.02249,-0.6036 0.462108,-0.83712 0.454578,-1.51745 -0.0948,-0.27708 -0.136934,-0.56155 -0.0899,-0.84604 0.0094,-0.35502 -0.0014,-0.71045 -0.0014,-1.06564 0.0024,-0.49265 0.0021,-0.98532 0.0014,-1.47797 0.181247,-0.50128 -0.435458,-0.56676 -0.435458,-1.01945 0.07256,-0.25565 0.207916,-0.63804 0.09797,-0.89966 -0.03258,-0.0775 -0.123378,-0.12396 -0.185078,-0.18596 -0.395094,-0.35001 -0.222515,-0.46943 -0.151069,-0.88943 -0.05829,-0.0639 -0.109314,-0.13371 -0.17487,-0.19182 -0.05545,-0.0492 -0.13674,-0.0736 -0.185763,-0.12782 -0.287521,-0.31847 0.006,-0.0617 -0.103775,-0.30977 -0.05691,-0.12869 -0.157245,-0.21022 -0.258231,-0.30742 -0.02082,-0.0618 -0.02184,-0.13215 -0.06251,-0.18569 -0.21328,-0.28082 -0.159919,0.055 -0.314409,-0.31047 -0.03737,-0.0884 -0.01493,-0.19168 -0.05515,-0.27912 -0.06594,-0.14351 -0.202248,-0.25312 -0.28955,-0.38732 -0.174463,-0.12777 0.0093,-0.28981 -0.03791,-0.42591 -0.08862,-0.25573 -0.47891,-0.42782 -0.702009,-0.57133 -0.07588,-0.062 -0.168915,-0.11064 -0.227656,-0.18593 -0.149056,-0.191 -0.215169,-0.42416 -0.33803,-0.62938 -0.140576,-0.23481 -0.334734,-0.39073 -0.473649,-0.62868 -0.01678,-0.69369 -0.376246,-0.86728 -0.91929,-1.22385 -0.224441,-0.39383 -0.602492,-0.8359 -1.03437,-1.0571 -0.529982,-0.32127 -1.104597,-0.69504 -1.483277,-1.16578 -0.01531,-0.019 -0.32882,-0.62342 -0.347726,-0.65973 -0.598854,-0.40122 -1.165486,-0.94032 -1.529817,-1.52309 -0.160582,-0.2941 -0.367729,-0.57057 -0.646922,-0.78627 -0.06607,-0.051 -0.152196,-0.0833 -0.206316,-0.14446 -0.140397,-0.1587 -0.205517,-0.36025 -0.315739,-0.5368 -0.667461,-0.31343 -0.415667,-0.49447 -0.698467,-0.95544 -0.143666,-0.23417 -0.336275,-0.4427 -0.480651,-0.67652 -0.476025,-0.58598 -1.067452,-1.09423 -1.086784,-1.85559 -0.133036,-0.33251 -0.221264,-0.65593 -0.480973,-0.93401 -0.104624,-0.11206 -0.242003,-0.19765 -0.346419,-0.30986 -0.177339,-0.19058 -0.306864,-0.41269 -0.460641,-0.61883 -0.367242,-0.73632 -0.488787,-1.55602 -0.973746,-2.24654 -0.152728,-0.40513 -0.29509,-0.83034 -0.493294,-1.21999 -0.05567,-0.10944 -0.155514,-0.19877 -0.206888,-0.30986 -0.164951,-0.35667 -0.142771,-0.49677 -0.172435,-0.87149 -0.285419,-0.78408 -0.590263,-1.56138 -0.676121,-2.38567 -0.166149,-0.45987 -0.321696,-0.92807 -0.346122,-1.41403 -0.0055,-0.10973 0.03574,-0.22112 0.01404,-0.32924 -0.0096,-0.0476 -0.250526,-0.48372 -0.27493,-0.52862 -0.02467,-0.0933 -0.0614,-0.18468 -0.07402,-0.27983 -0.01344,-0.10098 0.01947,-0.20542 -0.0034,-0.30502 -0.09137,-0.39587 -0.349756,-0.6929 -0.347366,-1.116 0.158243,-0.84429 0.08094,-1.71611 0.06937,-2.56925 -0.01004,-0.62538 0.0014,-1.25076 9.74e-4,-1.87616 0.08016,-0.39078 -0.108144,-0.91282 -0.0014,-1.291 0.03126,-0.11078 0.126095,-0.19974 0.174335,-0.30561 0.06829,-0.14985 0.116226,-0.30641 0.174335,-0.45963 0.382874,-0.5611 0.473925,-1.22916 0.783872,-1.81928 0.252051,-0.34973 0.14525,-0.17413 0.326598,-0.52376 0.06895,-0.0903 0.14831,-0.17495 0.206862,-0.27086 0.25571,-0.41887 0.0107,-0.20085 0.353849,-0.61921 0.412373,-0.50271 0.21804,-0.16064 0.699494,-0.64395 0.145981,-0.14655 0.266737,-0.31153 0.400101,-0.46729 0.516872,-0.777967 1.352606,-1.311173 2.02365,-1.966288 0.27464,-0.268134 0.657137,-0.75957 0.90397,-1.066649 0.664804,-0.77432 1.537365,-1.368178 2.309351,-2.050591 0.112316,-0.102482 0.224701,-0.204945 0.336973,-0.307476 0.117048,-0.106893 0.247067,-0.203666 0.35098,-0.320808 0.0061,-0.0069 0.701318,-0.940249 0.712087,-0.948387 7.539325,-5.695099 49.392995,-36.761957 1.047373,-0.849969 0.538206,-0.695487 1.456175,-1.165899 1.890939,-1.914259 6.930722,-5.978558 0.316935,-0.281188 21.807892,-16.258127 0.113688,-0.08455 0.467195,-0.324198 0.353707,-0.239469 C 15.502733,102.21538 25.940448,95.531383 32.386938,89.45749 39.538847,82.789064 48.091239,77.487835 56.061907,71.588435 c 0.36953,-0.273497 0.717355,-0.416153 1.135306,-0.615467 0.975285,-0.384652 1.907116,-0.834179 2.761935,-1.403732 1.042391,-0.643062 2.316336,-0.885504 3.495148,-1.272198 1.03936,-0.500743 2.18654,-0.706471 3.2992,-1.023839 0.997524,-0.389419 -0.111747,0.01279 1.092714,-0.311073 0.767069,-0.206233 0.354179,-0.200672 1.161751,-0.318122 0.888816,-0.129264 0.126887,0.0909 0.859083,-0.15463 0.608373,-0.182027 1.236329,-0.296403 1.851023,-0.45481 0.630506,-0.16248 0.961168,-0.316258 1.635752,-0.357086 0.854177,-0.301964 1.591012,-0.252106 2.471722,-0.205628 0.160657,0.004 1.012742,0.02656 1.131355,0.0099 0.18532,-0.02647 0.354401,-0.110114 0.532677,-0.162312 0.567728,-0.166257 1.001115,-0.241817 1.596625,-0.241351 0.434744,0.115754 1.041301,0.0222 1.470909,0.100926 0.345041,0.06314 0.669527,0.195131 1.005402,0.289623 0.423088,0.175178 0.86297,-2.38e-4 1.29134,0.03628 0.464689,0.03965 0.878564,0.246089 1.237963,0.487927 0.425347,0.626766 1.105028,0.722171 1.746176,1.049035 0.334132,0.170351 0.409204,0.279751 0.670185,0.528051 0.408575,0.852299 1.330295,1.276054 2.050812,1.889697 0.549008,0.608637 0.841748,1.375691 1.388042,1.983158 0.337145,0.374909 0.650598,0.603156 1.045578,0.921327 0.505354,0.670252 1.160554,1.227613 1.7428,1.838471 0.115438,0.121087 0.638404,0.780762 0.761865,0.935263 0.105275,0.165345 0.217447,0.32733 0.315726,0.496025 0.11226,0.192851 0.201038,0.396219 0.315759,0.587961 0.206633,0.345379 0.504868,0.646928 0.680503,1.005619 0.05308,0.10839 0.339198,1.113039 0.364711,1.200831 0.0885,0.216977 0.164799,0.438187 0.265362,0.650932 0.104171,0.220407 0.250177,0.42438 0.34839,0.646958 0.332576,0.753692 0.149327,0.430208 0.257195,1.094155 0.05407,0.332376 0.140853,0.660072 0.194969,0.992427 0.745599,1.660746 -0.427004,-0.880786 0.545367,0.965902 0.09843,0.186835 0.402363,1.050363 0.473848,1.223718 0.571432,1.385722 0.06787,0.02052 0.473341,1.152894 0.0088,0.157991 0.03333,0.315822 0.02858,0.473981 -0.0033,0.09793 -0.128482,1.088525 -0.134022,1.146839 -0.06102,0.650268 -0.05164,1.296294 -0.0363,1.947772 0.04833,1.103839 0.02582,2.208412 0.0203,3.312649 -1.54e-4,0.207332 -0.02549,0.415865 -4.41e-4,0.621998 0.0022,0.01903 0.347408,1.608558 0.350487,1.628204 0.120205,0.769433 0.09623,1.522213 0.04403,2.293509 -0.01479,0.242065 -0.03277,0.483982 -0.04392,0.726186 -0.01104,0.237168 0.0088,0.476012 -0.02196,0.711832 -0.06853,0.532938 -0.24914,1.050364 -0.337454,1.580992 -0.106599,0.639671 -0.07559,0.758351 -0.07063,1.422181 -0.272038,1.68585 -0.644595,3.35957 -1.225528,4.98357 -0.187586,0.94985 -0.471266,1.87868 -0.535159,2.84555 -0.05495,0.83099 0.07813,0.93919 -0.132367,1.71564 -0.0714,0.26282 -0.196039,0.51183 -0.294031,0.76774 -0.611268,1.48031 -0.765418,3.0536 -1.134896,4.58454 -0.360584,1.94249 0.103289,-0.36778 -0.352749,1.39388 -0.30511,1.17863 0.03719,0.30631 -0.357306,1.4664 -0.585502,1.72176 -0.07703,-0.054 -0.521498,1.58815 -0.203378,0.79843 -0.546096,1.59453 -0.651271,2.41241 -0.269026,2.09198 0.298489,-1.18016 -0.174764,1.38918 -0.04282,0.26241 -0.0661,0.52793 -0.128482,0.78721 -0.05771,0.23979 -0.166862,0.46787 -0.230722,0.70642 -0.06875,0.25669 -0.09987,0.52049 -0.166487,0.77761 -0.064,0.24721 -0.166277,0.48604 -0.225315,0.73425 -0.13539,0.56921 -0.217723,1.14757 -0.345675,1.71814 -0.201182,1.14372 -0.514039,2.26151 -0.776421,3.39262 0.03509,0.84921 -0.327236,1.63326 -0.53069,2.44338 -0.265119,1.0556 -0.449152,2.14817 -0.611644,3.22004 -0.124576,0.46577 -0.330072,0.9291 -0.32462,1.41555 0.0011,0.14288 0.08563,0.86551 0.07901,0.94598 -0.01821,0.22192 -0.09667,0.43667 -0.145057,0.65501 -0.26737,1.26303 -0.512449,2.52908 -0.848193,3.77781 -0.20458,0.76093 -0.0055,0.34324 -0.326099,0.89778 -0.338028,0.52941 0.0066,1.17382 -0.04513,1.75446 -0.02615,0.29675 -0.111003,0.58708 -0.166476,0.88062 -0.335302,1.04677 -0.777392,2.06678 -1.247731,3.07088 -0.124145,0.26503 -0.28347,0.51709 -0.393865,0.78689 -0.207701,0.71965 -0.0918,0.40399 -0.321521,0.95428 -0.200674,0.41105 0.144846,0.8548 0.04424,1.27497 -0.02922,0.12206 -0.118019,0.22644 -0.177044,0.33967 -0.415779,1.18007 -0.697719,2.38239 -1.128807,3.56565 -0.642477,1.74547 -1.272092,3.4971 -1.592894,5.31499 -0.165099,0.76893 -0.230586,1.21245 -0.51274,1.96051 -0.104039,0.27584 -0.269504,0.53135 -0.372822,0.80742 -0.322102,0.8606 -0.478097,1.80883 -0.702649,2.69089 -0.249964,1.0227 -0.653846,1.99497 -1.105731,2.95643 -0.06687,0.14232 -0.111598,0.29345 -0.193152,0.42953 -0.32515,0.54261 -0.05868,-0.2296 -0.254865,0.46716 0.02142,0.39464 -0.103896,0.82248 -0.247456,1.19619 -0.06283,0.16363 -0.182244,0.30735 -0.241509,0.47197 -0.188177,0.52275 -0.272013,1.07082 -0.406184,1.60657 -0.807723,2.00018 -1.755452,3.97996 -3.028104,5.78601 -0.799554,1.13465 -1.294087,1.62493 -2.222441,2.65555 -6.540536,7.1088 -19.891768,15.37008 -24.609001,18.83694 -0.22643,0.1664 -0.520495,0.24388 -0.766634,0.38644 -3.246558,-5.97467 27.289269,-22.83176 20.162115,-14.19903 -1.070885,1.2971 -0.03648,-0.16937 -1.092093,1.42066 -1.418935,1.61515 -2.428161,3.46941 -3.737812,5.1496 -0.839583,1.07715 -1.630441,1.92309 -2.546502,2.94247 -0.748191,1.11025 -1.72317,2.07675 -2.556428,3.13255 -0.333309,0.42231 -0.57263,0.87111 -0.968035,1.24816 -54.2110505,40.35328 -2.846783,2.11098 0.1239,-0.0678 0.111089,-0.0814 0.283545,-0.0506 0.418373,-0.0957 0.577831,-0.1927 0.593891,-0.28448 1.120246,-0.67684 0,0 -21.350491,15.93386 -21.350491,15.93386 v 0 c -0.526358,0.39239 -0.542419,0.48415 -1.120249,0.67685 -0.134829,0.045 -0.527847,0.17888 -0.418369,0.0959 2.840052,-2.15822 53.723795,-40.22322 -0.123914,0.0678 0.395403,-0.37707 0.63473,-0.82587 0.96804,-1.24819 0.833251,-1.05579 1.808232,-2.0223 2.556423,-3.13253 0.916061,-1.01938 1.706918,-1.86534 2.546501,-2.94247 1.309652,-1.68021 2.318882,-3.53444 3.737813,-5.14962 1.055589,-1.59 0.02121,-0.12368 1.092092,-1.42063 6.779458,-8.2116 -12.700337,-0.43059 22.538868,-17.66874 0.246146,-0.14265 0.990083,-0.55603 0.766641,-0.38644 -6.865198,5.21034 -13.768005,10.38139 -20.673816,15.54909 -0.272051,0.20357 0.522417,-0.42942 0.770951,-0.65555 0.87234,-0.79366 0.99873,-0.97527 1.810879,-1.86273 0.928357,-1.0306 1.422883,-1.5209 2.222439,-2.65556 1.272651,-1.80604 2.220381,-3.78583 3.028104,-5.78599 0.134172,-0.53577 0.218007,-1.08381 0.406189,-1.60658 0.05926,-0.16463 0.178666,-0.30841 0.241502,-0.47198 0.143562,-0.37369 0.268873,-0.80153 0.247457,-1.19618 0.19616,-0.69675 -0.07028,0.0753 0.254866,-0.46714 0.08156,-0.13608 0.126288,-0.28727 0.19315,-0.42953 0.451885,-0.96147 0.855767,-1.93372 1.105733,-2.95647 0.224551,-0.88204 0.380546,-1.83027 0.702648,-2.69088 0.103333,-0.27606 0.268776,-0.53156 0.372821,-0.8074 0.282156,-0.74806 0.347646,-1.1916 0.512746,-1.96052 0.320799,-1.81789 0.950412,-3.56952 1.592889,-5.31499 0.431089,-1.18326 0.71303,-2.38559 1.128811,-3.56565 0.059,-0.11329 0.147802,-0.21761 0.177045,-0.33967 0.100575,-0.42017 -0.244929,-0.86392 -0.04424,-1.27497 0.229708,-0.55028 0.113807,-0.23462 0.32152,-0.95427 0.110404,-0.2698 0.269719,-0.52186 0.393864,-0.78689 0.470347,-1.00411 0.912427,-2.02413 1.247727,-3.07089 0.0555,-0.29354 0.140323,-0.58387 0.166481,-0.88062 0.0512,-0.58064 -0.292865,-1.22505 0.04517,-1.75446 0.321052,-0.55454 0.121527,-0.13684 0.326101,-0.89778 0.335745,-1.24873 0.580826,-2.51477 0.848192,-3.77782 0.04834,-0.21833 0.126707,-0.43308 0.145055,-0.655 0.0066,-0.0805 -0.07739,-0.80309 -0.07898,-0.94598 -0.0055,-0.48645 0.200043,-0.94978 0.32462,-1.41555 0.162498,-1.07187 0.346531,-2.16444 0.611645,-3.22004 0.203462,-0.81012 0.565837,-1.59417 0.530699,-2.44337 0.262383,-1.13112 0.575235,-2.24891 0.77641,-3.39262 0.127946,-0.57057 0.210287,-1.14894 0.345684,-1.71815 0.05905,-0.24821 0.161247,-0.48703 0.225316,-0.73425 0.06664,-0.25711 0.09777,-0.52091 0.16648,-0.7776 0.06384,-0.23855 0.173063,-0.46664 0.230723,-0.70642 0.06236,-0.25928 0.08567,-0.5248 0.128483,-0.78721 0.47325,-2.56934 -0.09428,0.7028 0.174759,-1.38918 0.105165,-0.81788 0.447896,-1.61399 0.651269,-2.41242 0.444419,-1.64217 -0.064,0.13362 0.521493,-1.58814 0.394492,-1.16009 0.05221,-0.28777 0.357321,-1.4664 0.456046,-1.76166 -0.0079,0.5486 0.352742,-1.39388 0.369485,-1.53094 0.523642,-3.10424 1.134886,-4.58455 0.09801,-0.25591 0.222767,-0.50491 0.294037,-0.76774 0.21056,-0.77645 0.07744,-0.88464 0.132335,-1.71564 0.06389,-0.96687 0.347576,-1.89569 0.535162,-2.84554 0.580932,-1.624 0.953485,-3.29773 1.22552,-4.98358 -0.0047,-0.66382 -0.03586,-0.7825 0.07066,-1.42217 0.08834,-0.53063 0.268931,-1.04806 0.337474,-1.581 0.03034,-0.23583 0.01105,-0.47466 0.02196,-0.71183 0.01105,-0.24221 0.02922,-0.48413 0.04386,-0.72619 0.05208,-0.7713 0.07608,-1.52407 -0.04408,-2.29351 -0.003,-0.0196 -0.348168,-1.60915 -0.350482,-1.62821 -0.02507,-0.20612 2.96e-4,-0.41465 4.48e-4,-0.62199 0.0055,-1.10423 0.02801,-2.20881 -0.02025,-3.31265 -0.01531,-0.65147 -0.02468,-1.2975 0.03634,-1.94777 0.0055,-0.0583 0.130977,-1.04889 0.134022,-1.14684 0.005,-0.15815 -0.01902,-0.31599 -0.02853,-0.47397 -0.405496,-1.13242 0.09809,0.23282 -0.473337,-1.152898 -0.07149,-0.173354 -0.375464,-1.036883 -0.473847,-1.223728 -0.972376,-1.846678 0.200233,0.694854 -0.545376,-0.965892 -0.05407,-0.332355 -0.14098,-0.660051 -0.194952,-0.992426 -0.107825,-0.663948 0.07538,-0.340474 -0.257212,-1.094156 -0.09822,-0.222588 -0.244154,-0.42655 -0.348381,-0.646967 -0.100596,-0.212746 -0.176916,-0.433946 -0.265367,-0.650923 -0.02551,-0.08782 -0.311634,-1.092441 -0.36471,-1.20083 -0.175643,-0.358692 -0.473862,-0.66024 -0.680505,-1.00562 -0.114719,-0.191741 -0.203418,-0.395109 -0.315766,-0.587961 -0.09828,-0.168705 -0.210476,-0.33069 -0.315717,-0.496035 -0.123452,-0.154491 -0.646427,-0.814156 -0.761861,-0.935263 -0.582243,-0.610848 -1.237451,-1.168219 -1.742798,-1.838461 -0.394984,-0.318171 -0.708438,-0.546428 -1.04558,-0.921326 -0.546294,-0.607468 -0.839036,-1.374532 -1.388047,-1.983169 -0.720521,-0.613643 -1.642239,-1.037398 -2.050813,-1.889697 -0.260973,-0.24829 -0.336046,-0.3577 -0.670179,-0.528041 -0.64115,-0.326864 -1.320831,-0.422269 -1.746178,-1.049035 -0.359396,-0.241837 -0.773276,-0.448318 -1.237963,-0.487927 -0.428371,-0.03648 -0.868251,0.138899 -1.291341,-0.03628 -0.335876,-0.09446 -0.660363,-0.226463 -1.005402,-0.289623 -0.42961,-0.0787 -1.036164,0.01477 -1.470909,-0.100906 -0.595512,-4.36e-4 -1.028897,0.07513 -1.596627,0.241341 -0.17828,0.05224 -0.347356,0.135847 -0.532668,0.162312 -0.11863,0.01695 -0.970704,-0.0059 -1.131362,-0.0099 -0.88071,-0.04649 -1.617545,-0.09635 -2.47172,0.205628 -0.674584,0.04084 -1.005246,0.194606 -1.635754,0.357086 -0.614693,0.158417 -1.242649,0.272783 -1.851022,0.45481 -0.732201,0.245515 0.02975,0.02538 -0.859083,0.15463 -0.807567,0.11744 -0.394683,0.111879 -1.161754,0.318112 -1.204468,0.323831 -0.09519,-0.07831 -1.092707,0.311083 -1.112668,0.317369 -2.259845,0.523096 -3.299197,1.023839 -1.178821,0.386694 -2.452762,0.629136 -3.49515,1.272208 -0.854821,0.569543 -1.786656,1.01907 -2.76194,1.403732 -0.189613,0.0904 -0.385127,0.171679 -0.568845,0.271267 -0.195265,0.105852 -0.740966,0.475635 -0.566462,0.34419 35.470928,-26.718158 25.737495,-20.259574 19.025931,-13.998895 -6.68985,6.303182 -16.885143,12.75126 -22.498942,16.939629 -0.113524,0.08475 -0.46702,0.324386 -0.353703,0.239469 21.370722,-16.0141 27.666864,-21.452792 20.893094,-15.609624 -0.434765,0.748359 -1.352735,1.218771 -1.890941,1.914259 -51.4073566,38.535788 -7.690162,5.741934 -1.047371,0.849969 0.163844,-0.120671 -0.237254,0.314117 -0.355394,0.471453 -0.45408,0.604761 -0.203483,0.337281 -0.707678,0.797741 -0.112271,0.102542 -0.224645,0.204984 -0.336967,0.307476 -0.771987,0.682414 -1.644546,1.276272 -2.309353,2.050591 -0.246831,0.307079 -0.629335,0.798525 -0.903974,1.066649 -0.671038,0.655116 -1.506775,1.188321 -2.023645,1.966288 -0.13338,0.15576 -0.25412,0.320738 -0.400102,0.46729 -0.481452,0.483308 -0.28712,0.141248 -0.699497,0.643964 -0.343175,0.418354 -0.09815,0.200335 -0.353846,0.619204 -0.05855,0.09595 -0.137904,0.18057 -0.206862,0.27086 -0.181338,0.349622 -0.07454,0.174028 -0.326597,0.523759 -0.309947,0.590122 -0.401,1.258173 -0.783873,1.819281 -0.0581,0.153222 -0.106059,0.309775 -0.174334,0.459627 -0.04823,0.105882 -0.143054,0.194834 -0.174334,0.305623 -0.106809,0.378169 0.0815,0.900203 0.0014,1.291001 2.4e-5,0.625389 -0.0112,1.250758 -9.75e-4,1.876147 0.01164,0.85315 0.08888,1.724956 -0.06937,2.569255 -0.0024,0.423091 0.25601,0.72011 0.347366,1.115992 0.02297,0.09961 -0.0097,0.204042 0.0034,0.305018 0.01269,0.09516 0.04934,0.186547 0.07403,0.27983 0.0244,0.0449 0.265393,0.481008 0.274926,0.528636 0.02166,0.108103 -0.01964,0.219505 -0.01418,0.329223 0.02444,0.485974 0.179975,0.954166 0.346127,1.414032 0.08584,0.824309 0.390704,1.601589 0.676115,2.385669 0.02966,0.37472 0.0076,0.51482 0.172436,0.8715 0.05137,0.11109 0.151219,0.2004 0.206888,0.30985 0.198204,0.38965 0.340571,0.81486 0.493295,1.22 0.484957,0.6905 0.606504,1.51022 0.973746,2.24653 0.15378,0.20614 0.283296,0.42825 0.46064,0.61883 0.104414,0.11222 0.241774,0.19782 0.346421,0.30986 0.259708,0.27807 0.347931,0.60151 0.480974,0.93401 0.01932,0.76136 0.610759,1.26961 1.086781,1.85559 0.144382,0.23382 0.336993,0.44236 0.480648,0.67653 0.282802,0.46097 0.03102,0.642 0.698478,0.95548 0.11023,0.17655 0.17533,0.37809 0.315736,0.53679 0.05412,0.0611 0.140248,0.0934 0.206316,0.14447 0.279194,0.21569 0.486338,0.49216 0.646925,0.78626 0.36433,0.58278 0.930963,1.12187 1.529808,1.52309 0.01894,0.0363 0.332461,0.64076 0.347729,0.65974 0.378682,0.47074 0.953299,0.84451 1.483283,1.16577 0.431878,0.22121 0.809928,0.66328 1.034368,1.0571 0.543046,0.35658 0.902472,0.53016 0.919291,1.22386 0.138919,0.23795 0.333075,0.39387 0.473647,0.62867 0.12287,0.20522 0.188977,0.43838 0.338033,0.62939 0.05875,0.0752 0.15177,0.12395 0.227654,0.18593 0.223097,0.1435 0.61339,0.31559 0.702005,0.57133 0.04718,0.1361 -0.136545,0.29814 0.03791,0.4259 0.08731,0.13421 0.223603,0.24381 0.289551,0.38733 0.04019,0.0874 0.01789,0.19069 0.05515,0.2791 0.154499,0.36548 0.101137,0.0296 0.314409,0.31049 0.04069,0.0535 0.04166,0.12379 0.06251,0.18568 0.100982,0.0972 0.20132,0.17872 0.258232,0.30741 0.109667,0.248 -0.183756,-0.009 0.103763,0.30978 0.04902,0.0543 0.130319,0.0787 0.185762,0.12783 0.06556,0.0581 0.116585,0.12786 0.174869,0.19181 -0.07145,0.42001 -0.244033,0.53943 0.151052,0.88944 0.06171,0.0619 0.152489,0.10841 0.18508,0.18595 0.109954,0.26162 -0.02542,0.64402 -0.09797,0.89967 7e-6,0.45268 0.616706,0.51817 0.435464,1.01944 4.74e-4,0.49266 9.76e-4,0.98533 -0.0014,1.47798 -3.8e-5,0.35519 0.01105,0.71061 0.0014,1.06563 -0.04703,0.28449 -0.005,0.56897 0.0899,0.84605 0.0076,0.68033 -0.477047,0.91384 -0.454579,1.51745 0.06283,0.34036 0.180051,0.38892 -0.179661,0.6983 -0.354984,0.51906 0.302339,0.5838 -0.250416,1.14098 -0.09098,0.0917 -0.179773,0.18509 -0.26966,0.27763 -0.05732,0.0655 -0.111927,0.133 -0.171937,0.1966 -0.04839,0.0512 -0.13238,0.0834 -0.15295,0.14777 -0.03557,0.11126 0.170334,0.26598 0.07145,0.34112 -21.017609,15.97158 -12.6374,13.14084 -21.444462,16.10567 7.066193,-5.2844 14.132386,-10.5688 21.198576,-15.8532 -0.04463,0.0347 -0.104293,0.0585 -0.133902,0.10417 -0.0107,0.0164 0.0339,0.0281 0.03601,0.047 0.0073,0.0649 0.0045,0.13124 -0.0085,0.19545 -0.02001,0.10089 -0.04228,0.20339 -0.08912,0.29699 -0.03791,0.0757 -0.107427,0.1354 -0.161154,0.2031 -0.291574,0.24699 0.02982,0.30024 -0.154093,0.43848 -0.07988,0.0601 -56.7731418,42.49038 -0.257031,0.16014 -2.512478,8.126 -0.497797,1.68692 -21.522278,16.18879 -7.280187,5.02159 14.075041,-10.57641 21.135614,-15.84022 0.06803,-0.0507 -0.09404,0.1345 -0.150535,0.1954 -0.06731,0.0726 -0.16521,0.12294 -0.21971,0.20354 -0.0673,0.0996 -0.09222,0.21739 -0.138336,0.3261 -5.408849,7.14233 -0.117168,0.20303 -21.630738,16.32693 -0.05377,0.0402 -0.09714,0.10416 -0.166335,0.11544 -0.05277,0.009 -0.184347,-0.0341 -0.143442,-0.0649 21.30468,-16.08894 14.970075,-21.98132 21.426305,-15.95678 -0.05253,0.26369 -0.174408,0.4056 -0.337524,0.6216 -5.816874,7.7024 23.673471,-7.80026 -21.898021,16.62937 -0.782005,0.28599 0.08341,-0.0557 -0.529018,0.25306 -0.04759,0.024 -0.196731,0.0799 -0.154922,0.0485 7.028977,-5.28135 27.995753,-21.24753 21.124551,-15.80439 -0.10245,0.0812 -56.6869177,42.45374 -0.322652,0.22719 -7.142534,5.34999 -14.284322,10.70076 -21.427602,16.04995 -0.04638,0.0348 -0.187697,0.1367 -0.141397,0.10186 7.073138,-5.32166 14.135296,-10.65489 21.221915,-15.96234 0.05876,-0.044 0.04419,0.1603 -0.01434,0.20461 -7.137438,5.40621 -14.321092,10.76406 -21.481655,16.14611 7.05601,-5.27334 28.03652,-21.2857 21.16803,-15.82003 -6.963454,5.54124 -14.27586,10.72568 -21.453039,16.04683 -0.04828,0.0358 -0.236443,0.0344 -0.188536,-0.002 7.032903,-5.31248 14.084088,-10.60611 21.178497,-15.8535 0.0481,-0.0356 0.02205,0.10957 0.03307,0.16433 -7.096242,5.36726 -14.192481,10.73453 -21.288724,16.10179 -0.0679,-0.0341 -0.275461,-0.0347 -0.216092,-0.0797 7.01965,-5.3174 22.816871,-23.85723 21.222366,-15.77994 -21.83136,16.31861 -35.303949,26.42137 -0.405165,0.20779 0.361883,-0.27182 -0.311262,0.26885 -0.389081,0.33687 -0.05409,0.0473 -0.10746,0.0952 -0.161191,0.14279 -3.237665,3.01389 -14.162259,11.2727 -21.831737,16.32411 7.079182,-5.29566 14.156362,-10.59342 21.237539,-15.88697 0.04877,-0.0365 -0.09149,0.079 -0.140174,0.11559 -7.133077,5.35908 -14.253583,10.73145 -21.404926,16.07125 -0.04688,0.035 -0.223606,0.0787 -0.176915,0.0436 7.018622,-5.28798 28.200917,-21.01793 21.105535,-15.81163 -7.222393,5.2995 -14.324391,10.72749 -21.486586,16.09123 7.073283,-5.28789 14.120025,-10.60399 21.219852,-15.86368 0.03912,-0.0289 0.04969,0.10622 0.01092,0.13556 -7.112073,5.38273 -14.254445,10.73384 -21.415817,16.06459 -0.03905,0.029 -0.191209,0.0197 -0.152415,-0.01 21.323631,-16.14141 25.307646,-23.2537 21.132751,-15.82735 -7.145864,5.34356 -14.286872,10.69227 -21.43759,16.0307 -0.175624,0.13112 -0.02059,-0.0331 -0.0871,-0.0774 -0.04644,-0.0309 -0.218491,0.0334 -0.174187,0 6.97648,-5.25935 13.962985,-10.50857 21.002103,-15.70148 0.161136,-0.11888 -0.232258,0.30985 -0.348392,0.46479 0,0 -21.350492,15.93387 -21.350492,15.93387 z"
       inkscape:connector-curvature="0"
       style="stroke-width:0.4599832;fill:#00ffcc" />
    <path
       id="path18"
       d="m 26.616682,225.79626 c 31.094174,-28.53834 26.113512,-21.09484 20.044032,-14.61696 -0.325812,0.34774 -0.647212,0.62994 -0.936293,1.00704 -0.174186,0.20012 -0.368065,0.38784 -0.522581,0.60034 -0.198488,0.27301 -0.326029,0.58444 -0.53347,0.85213 -0.237069,0.30591 -0.525439,0.57777 -0.79476,0.86178 -0.772666,0.81481 -1.583773,1.57599 -2.441443,2.31912 -7.570296,6.29689 -2.876923,2.41412 -22.674641,16.88765 -0.106224,0.0776 -0.909951,0.25807 -1.095522,0.20274 -0.106467,-0.0317 -0.181671,-0.11735 -0.272519,-0.17611 -0.694722,-0.31947 -1.31321,-0.77507 -2.009611,-1.09116 -2.322433,-1.05417 0.632096,0.45205 -1.793705,-0.82104 -1.18747,-0.63483 -2.622429,-0.97052 -3.6135628,-1.87697 -0.2122816,-0.19415 -0.3507162,-0.44293 -0.5347313,-0.65869 -0.1526015,-0.17893 -0.3165183,-0.34999 -0.4747753,-0.52498 -0.5752942,-0.3356 -0.543406,-0.91224 -0.8831202,-1.38215 -0.2334668,-0.32296 -0.4260496,-0.44743 -0.7395178,-0.70373 -0.018738,-0.0135 -0.7585943,-0.54702 -0.7816489,-0.5775 -0.055893,-0.0738 -0.3064201,-0.83152 -0.3377047,-0.90857 -0.2047347,-0.50423 -0.3167213,-0.6736 -0.5884624,-1.17251 -0.4906228,-0.78014 -0.8351251,-1.67895 -0.9007183,-2.57834 -0.067248,-0.922 0.1333202,0.0148 -0.1082105,-0.90888 -0.3117379,-1.27707 -0.2527838,-2.62496 0.059347,-3.89466 0.1163614,-0.25474 0.1933348,-0.52672 0.3490603,-0.76427 0.1644344,-0.25082 0.4088459,-0.45297 0.6022475,-0.68689 0.2081335,-0.25173 0.4063199,-0.50994 0.6019043,-0.76952 0.7653103,-1.01568 1.3955583,-2.0958 2.0661972,-3.16187 0.4287621,-0.84122 1.3345307,-1.31436 1.9517949,-2.01471 0.131857,-0.14953 0.474578,-0.69356 0.597843,-0.88504 7.261001,-5.41377 14.522004,-10.82756 21.783007,-16.24132 0.159679,-0.088 0.308326,-0.19426 0.479021,-0.26402 0.309017,-0.12624 0.660536,-0.14691 0.982805,-0.24352 0.948037,-0.28422 1.825499,-0.65834 2.711272,-1.069 2.889283,-1.25683 -0.505601,0.18868 2.307522,-0.9155 1.498578,-0.58818 0.632449,-0.33442 2.10403,-0.87551 0.816508,-0.30019 1.196036,-0.38842 2.036033,-0.62323 1.473398,-0.15099 2.960296,-0.4658 4.453979,-0.29327 0.33799,0.039 0.667066,0.12475 1.000601,0.18717 0.362251,0.10914 0.737463,0.18892 1.086761,0.32752 0.02521,0.009 2.160126,1.06095 2.197294,1.0787 1.341295,0.64085 2.711535,1.23092 4.078339,1.82693 1.958078,0.65408 3.404712,2.04576 5.240639,2.89544 0.734953,0.34016 1.520773,0.58524 2.278806,0.88262 0.39172,0.16775 0.803492,0.30263 1.175158,0.50325 0.731174,0.39469 1.595796,1.09034 2.251969,1.57118 1.031286,0.75569 2.032395,1.53763 3.06633,2.29054 0.344361,0.26779 0.696366,0.52802 1.033087,0.80338 0.35693,0.29189 0.689005,0.60729 1.04725,0.89792 0.324485,0.26324 1.796403,1.35431 2.105536,1.62803 0.312591,0.27677 0.573413,0.59655 0.873993,0.88367 0.281145,0.26854 0.580299,0.52169 0.870453,0.78255 1.105306,1.00113 2.307859,1.89697 3.566555,2.73982 0.293333,0.19642 0.615348,0.35985 0.893256,0.57327 0.29784,0.22874 0.551911,0.49903 0.827862,0.74855 1.692071,1.77087 3.421773,3.5335 5.492443,4.96199 0.855797,0.72318 1.670597,1.52583 2.689879,2.07715 0.340036,0.18392 0.714999,0.31116 1.075781,0.46057 0.365196,0.15133 0.720009,0.32747 1.101979,0.44133 0.351535,0.10484 0.724445,0.14068 1.086662,0.21101 0.55969,0.0659 1.865256,0.25509 2.444148,0.18507 1.022316,-0.12368 1.802036,-0.56312 2.675444,-1.0152 1.601914,-0.82912 2.313135,-1.27647 3.918025,-2.21527 0.76326,-0.51369 1.52749,-1.02628 2.28984,-1.54108 0.75665,-0.51093 1.51476,-1.02018 2.26712,-1.53611 1.63838,-1.12347 3.24736,-2.39999 5.15451,-3.16655 0.34738,-0.13951 0.72537,-0.20876 1.08806,-0.31316 0.18232,0.0121 0.36458,0.0242 0.54688,0.0366 0,0 -21.350484,15.93386 -21.350484,15.93386 v 0 c -0.1823,-0.0121 -0.364589,-0.0242 -0.546878,-0.0366 -0.362692,0.10444 -0.740689,0.17355 -1.088064,0.31317 -1.907157,0.76655 -3.516133,2.04307 -5.154513,3.16654 -0.752365,0.51591 -1.510475,1.02516 -2.267122,1.53609 -0.762344,0.5148 -1.526565,1.02739 -2.289852,1.54109 -1.604876,0.93881 -2.316096,1.38616 -3.918007,2.21529 -0.873415,0.45206 -1.653127,0.89151 -2.675435,1.01519 -0.578913,0.07 -1.884466,-0.11898 -2.444163,-0.18508 -0.362222,-0.0704 -0.735121,-0.10618 -1.086664,-0.21101 -0.381968,-0.11372 -0.736782,-0.29006 -1.101974,-0.4413 -0.36079,-0.14937 -0.735748,-0.27667 -1.075788,-0.46059 -1.019277,-0.55131 -1.834074,-1.35396 -2.689875,-2.07717 -2.070674,-1.42848 -3.800376,-3.19108 -5.492443,-4.96197 -0.275955,-0.24952 -0.530019,-0.51981 -0.827866,-0.74855 -0.277908,-0.21344 -0.59992,-0.37686 -0.893256,-0.57328 -1.258696,-0.84284 -2.461249,-1.73868 -3.566555,-2.73982 -0.290149,-0.26083 -0.589307,-0.51401 -0.870452,-0.78254 -0.300581,-0.2871 -0.561403,-0.6069 -0.873988,-0.88367 -0.309138,-0.27373 -1.781057,-1.3648 -2.105542,-1.62802 -0.358245,-0.29063 -0.69032,-0.60604 -1.04725,-0.89794 -0.336721,-0.27535 -0.688725,-0.53557 -1.033087,-0.80337 -1.033935,-0.75289 -2.035044,-1.53485 -3.066329,-2.29055 -0.656172,-0.48081 -1.520796,-1.17648 -2.251968,-1.57117 -0.371662,-0.20063 -0.783439,-0.3355 -1.17516,-0.50325 -0.758033,-0.29739 -1.543853,-0.54246 -2.278806,-0.8826 -1.835926,-0.84971 -3.282561,-2.24139 -5.240639,-2.89546 -1.366799,-0.59602 -2.737044,-1.18609 -4.078335,-1.82694 -0.03715,-0.0176 -2.172093,-1.06871 -2.197292,-1.07871 -0.349303,-0.13854 -0.724509,-0.21833 -1.086767,-0.32749 -0.333534,-0.0624 -0.662611,-0.14821 -1.000601,-0.18717 -1.493683,-0.17254 -2.98058,0.14232 -4.453976,0.29326 -0.839998,0.23479 -1.219528,0.32303 -2.036035,0.62325 -1.471582,0.54107 -0.605453,0.28731 -2.104031,0.87551 -2.813123,1.10415 0.581768,-0.34136 -2.307517,0.91548 -0.885778,0.41067 -1.763237,0.78478 -2.711277,1.06898 -0.322262,0.0966 -0.673785,0.11722 -0.982805,0.24354 -0.170683,0.0697 -0.31935,0.17601 -0.479021,0.26402 6.972661,-5.20881 13.906781,-10.4587 20.917983,-15.62642 0.131902,-0.0971 -0.167127,0.26606 -0.255365,0.39667 -0.111091,0.16446 -0.209398,0.33736 -0.342479,0.48837 -0.617265,0.70033 -1.523036,1.17347 -1.951797,2.01469 -0.670637,1.06607 -1.300884,2.1462 -2.066195,3.16188 -0.195585,0.25957 -0.393775,0.51779 -0.601911,0.76954 -0.193395,0.2339 -0.437813,0.43604 -0.60224,0.68685 -0.155734,0.23756 -0.232709,0.50954 -0.349065,0.76431 -0.312127,1.26968 -0.37108,2.61757 -0.05935,3.89463 0.241516,0.92343 0.04098,-0.0135 0.108211,0.90888 0.06558,0.8994 0.410099,1.79823 0.900721,2.57834 0.271741,0.49891 0.383729,0.6683 0.588463,1.17251 0.03126,0.0771 0.281808,0.83472 0.337704,0.90859 0.02306,0.0305 0.762943,0.56392 0.781648,0.57748 0.313469,0.2563 0.506047,0.38077 0.739514,0.70374 0.339718,0.46991 0.307829,1.04654 0.883123,1.38215 0.15826,0.17499 0.322175,0.34606 0.474775,0.52498 0.184012,0.21577 0.322453,0.46453 0.534735,0.65868 0.991134,0.90645 2.426092,1.24214 3.613563,1.87699 2.4258,1.2731 -0.528729,-0.23315 1.793704,0.82102 0.696402,0.3161 1.314886,0.77169 2.009612,1.09116 0.389796,0.25191 0.417651,0.19268 0.878114,0.0884 0.163679,-0.037 0.618096,-0.21283 0.489921,-0.11494 -24.753797,18.89336 -27.163185,20.91649 -20.026343,14.98012 0.85767,-0.74313 1.668778,-1.50432 2.441442,-2.31911 0.269323,-0.28401 0.557692,-0.55588 0.794761,-0.86179 0.207443,-0.26768 0.334982,-0.57913 0.533469,-0.85212 0.154517,-0.21252 0.34839,-0.40023 0.522585,-0.60035 0.289078,-0.3771 0.610483,-0.65931 0.936297,-1.00706 6.571638,-7.01381 6.397461,-8.82715 22.656951,-17.25076 0,0 -21.350495,15.93387 -21.350495,15.93387 z"
       inkscape:connector-curvature="0"
       style="stroke-width:0.4599832;fill:#00ffcc" />
    <path
       id="path24"
       d="m 100.47508,100.1485 c 0.40644,-0.309851 0.80756,-0.625345 1.21935,-0.92957 7.72122,-5.704288 15.39363,-11.461537 23.17952,-17.095845 0.8364,-0.605258 3.98606,-2.228604 4.83389,-2.672541 3.15091,-1.649812 2.65404,-1.382847 5.94438,-3.04049 3.09995,-1.482574 6.35989,-2.669022 9.58071,-3.921653 0,0 -21.35051,15.933881 -21.35051,15.933881 v 0 c -3.2208,1.252621 -6.48075,2.439079 -9.58068,3.921653 -2.85212,1.436859 -5.72901,2.85651 -8.51375,4.396119 -0.76595,0.423478 -2.94271,1.845666 -2.26452,1.316902 6.02193,-4.695229 26.87964,-20.367815 18.3021,-13.842333 0,0 -21.35049,15.933877 -21.35049,15.933877 z"
       inkscape:connector-curvature="0"
       style="stroke-width:0.4599832;fill:#00ffcc" />
    <path
       id="path26"
       d="m 150.04504,68.876613 c 0.94528,-0.714847 2.13729,-1.054567 3.33146,-1.278165 1.12518,-0.315148 2.21048,-0.745247 3.36685,-0.958627 0.54692,-0.171946 1.07653,-0.402771 1.58952,-0.642715 0.12512,-0.05858 0.22821,-0.153212 0.35861,-0.202129 0.37309,-0.13997 0.54876,-0.110937 0.93934,-0.118014 0.13511,0.01546 0.26955,0.0568 0.40521,0.04629 0.29128,-0.0225 0.55262,-0.173245 0.83746,-0.231944 0.43169,-0.08901 0.82656,-0.09347 1.26321,-0.06086 0.66864,0.08752 1.34543,0.04332 2.018,0.0344 0.63239,0.107963 1.1505,-0.184713 1.74203,-0.305781 0.48351,-0.09892 0.65655,-0.07731 1.13113,-0.07771 0.13093,0.06433 0.26165,0.128759 0.39247,0.193158 0.10186,0.06443 0.19612,0.139495 0.30543,0.193367 0.0885,0.04361 0.19218,0.05779 0.28334,0.09684 0.33505,0.143429 0.58278,0.357433 0.82715,0.600658 0.0634,0.06938 0.14302,0.129314 0.19045,0.208195 0.0503,0.08366 0.0458,0.188213 0.0981,0.271098 0.11675,0.185983 0.31194,0.209435 0.4791,0.353379 0.0873,0.07533 0.40012,0.509447 0.45048,0.577365 0.29143,0.296136 0.5402,0.598507 0.52357,1.009168 -0.003,0.1039 -0.0659,0.203636 -0.0591,0.307436 0.008,0.108905 0.18549,0.507454 0.22592,0.603077 0.0842,0.153837 0.16591,0.308863 0.25286,0.46153 0.31746,0.557481 0.61925,1.109649 0.82929,1.708998 0.2743,0.782646 -0.0669,0.10381 0.28148,0.736574 0.10969,0.395654 0.26449,0.802856 0.46541,1.17041 0.0598,0.109678 0.16443,0.197916 0.21867,0.309894 0.139,0.28662 0.21862,0.594066 0.35574,0.88142 0.55578,0.888468 0.88888,1.869476 1.17084,2.84982 0.0409,0.0673 0.32054,0.509625 0.34884,0.616706 0.0363,0.136956 0.01,0.282298 0.0414,0.420464 0.0885,0.409869 0.24405,0.784559 0.49186,1.133676 0.49432,0.772009 0.69278,1.642625 1.07585,2.453709 0.11078,0.282794 0.17292,0.356253 0.1742,0.643974 4.3e-4,0.0903 -0.0479,0.179995 -0.0333,0.269393 0.038,0.232104 0.26928,0.60495 0.34069,0.892502 0.003,0.106655 -0.0165,0.2156 0.009,0.319965 0.0528,0.22126 0.21054,0.413318 0.28272,0.630177 0.0334,0.100509 0.029,0.209613 0.0674,0.308675 0.0825,0.212428 0.21668,0.406508 0.31045,0.615249 0.22618,0.137065 -0.0188,0.316941 0.0354,0.464415 0.0227,0.06155 0.0927,0.100479 0.13108,0.155561 0.16535,0.237209 0.21187,0.461918 0.21787,0.736495 0.18877,0.230032 0.31931,0.467151 0.34928,0.754951 0.01,0.112513 -0.03,0.228931 -9.7e-4,0.338937 0.008,0.02934 0.25556,0.325971 0.27822,0.353497 0.2208,0.545894 -0.26145,0.569475 0.33147,0.971324 0.032,0.01041 0.0786,0.005 0.0959,0.03083 0.12361,0.186736 -0.0803,0.06701 -0.0305,0.23815 0.0539,0.18504 0.27333,0.332147 0.36584,0.5508 0.0721,0.671926 -0.36631,1.252106 0.27244,1.771355 0.20717,0.331731 0.42578,0.65229 0.42331,1.052326 0.20703,0.15803 0.37418,0.315197 0.35512,0.56542 -0.008,0.09397 -0.0555,0.188282 -0.0354,0.280703 0.0165,0.07444 0.0926,0.12755 0.13855,0.191345 0.34235,0.372866 0.2017,0.314999 0.15668,0.738833 0.51278,0.3612 0.49949,0.835091 0.36843,1.353944 -0.0558,0.323226 0.001,0.647067 0.003,0.971294 -0.009,0.389915 -0.008,0.7799 -0.006,1.169865 4.8e-4,0.512984 -3e-5,1.025969 -6e-5,1.53896 -0.0706,0.30719 0.0872,0.66662 1.2e-4,0.97013 -0.0627,0.21891 -0.27445,0.38662 -0.3484,0.60274 -0.0511,0.14929 -0.058,0.30778 -0.0872,0.46166 -0.28223,0.45861 -0.23119,0.9888 -0.34835,1.47681 -0.0292,0.12216 -0.10914,0.23057 -0.15246,0.34937 -0.15208,0.41664 -0.12855,0.41018 -0.18509,0.83199 -0.27593,0.37616 -0.24274,0.826 -0.35383,1.23881 -0.0341,0.12653 -0.11615,0.23932 -0.16055,0.36326 -0.30279,0.84307 0.0674,0.0767 -0.36064,0.88375 -0.0832,0.26435 -0.26972,0.88475 -0.38174,1.11713 -0.0854,0.17718 -0.22549,0.33036 -0.31505,0.50592 -0.26049,0.51069 -0.30505,0.79832 -0.71871,1.24034 -0.35514,0.46278 -0.8296,0.84286 -1.12129,1.34596 -0.18686,0.32229 -0.21128,0.64496 -0.36014,0.97973 -0.0677,0.15274 -0.16812,0.29248 -0.25228,0.43872 -7.28838,5.42322 -14.55023,10.87476 -21.86511,16.26965 -0.16426,0.12111 -0.37746,0.17719 -0.56269,0.27133 -0.16223,0.0825 -0.62296,0.365 -0.47958,0.25839 6.97464,-5.1864 13.94203,-10.381 20.97811,-15.50131 0.15467,-0.11259 -0.19409,0.31149 -0.30684,0.45831 -0.14616,0.19041 -0.31266,0.36792 -0.469,0.55188 -0.44649,0.5534 -1.11571,0.9219 -1.62644,1.41692 -0.41977,0.40684 -0.72177,0.91044 -1.00295,1.39639 -5.29193,7.62225 -0.3153,0.55642 -22.16107,16.71357 -0.15853,0.11726 -0.35654,0.18446 -0.53142,0.28161 -0.15283,0.0848 -0.58923,0.36762 -0.45144,0.26438 21.4344,-16.06191 27.13295,-21.65509 20.68216,-15.35416 -6.91504,6.85291 -15.0728,12.78535 -23.74267,17.81686 -7.44637,5.25604 -4.25148,3.00616 20.39419,-15.16173 0.18158,-0.13383 -0.31672,0.31075 -0.47618,0.46522 -0.47633,0.46146 -0.95943,0.91435 -1.4577,1.35698 -7.36945,6.40297 -15.15426,12.51471 -23.67565,17.67162 -0.1484,0.10651 -0.59119,0.42841 -0.44499,0.31957 6.99762,-5.2095 13.97928,-10.43606 20.99935,-15.62159 0.18084,-0.13364 -0.31694,0.30914 -0.47704,0.46236 -0.18029,0.17258 -1.25287,1.19331 -1.40957,1.31082 -7.35488,5.51623 -14.75579,10.98369 -22.13367,16.47553 0.69656,-0.56451 -1.70466,1.20095 -1.28602,0.89236 7.0049,-5.16373 13.99274,-10.34585 21.01782,-15.48784 0.47436,-0.34721 -0.46114,0.46571 -0.83564,0.74559 -7.24214,5.41265 -14.49299,10.8161 -21.73949,16.22415 6.99939,-5.21936 13.99879,-10.43871 20.99818,-15.65806 -0.15522,0.13508 -0.87254,0.75321 -1.01046,0.8981 -0.21347,0.2243 -0.3936,0.47225 -0.59952,0.70209 -0.91301,1.01902 -0.91229,0.97877 -1.9628,1.98992 -8.26989,6.25391 -7.71748,5.84068 -23.68745,17.65804 -0.34348,0.25415 -0.73003,0.45843 -1.08896,0.69505 -0.29051,0.1915 -1.13612,0.79584 -0.85909,0.58916 6.88631,-5.1376 27.46829,-20.62987 20.68753,-15.38239 -7.19559,5.56853 -14.62153,10.89714 -21.93231,16.34571 -1.08946,0.49763 -2.13344,1.05181 -3.11227,1.70676 -0.18801,0.10832 -0.3828,0.20784 -0.56403,0.32496 -0.87797,0.56743 -0.4625,0.39841 -1.40202,0.93477 -1.58776,0.90647 0.0779,-0.10395 -1.47865,0.68905 -0.246,0.12533 -0.46933,0.28297 -0.704,0.42446 -0.83526,0.55532 -1.73958,1.02591 -2.58229,1.57099 -0.3279,0.21209 -0.62305,0.46309 -0.95625,0.66853 -0.47411,0.2923 -1.4644,0.75824 -1.96528,1.00186 -7.92975,4.85459 -16.359739,11.84701 19.12757,-14.44784 0.16629,-0.12321 -0.27989,0.29618 -0.44555,0.42008 -21.41916,16.01882 -13.32384,12.22351 -21.91054,16.22747 -0.0926,0.0106 -0.34901,0.0857 -0.27778,0.032 7.03419,-5.30331 14.11466,-10.55794 21.20058,-15.8065 0.0322,-0.0239 0.0211,0.0873 -0.01,0.11135 -7.13458,5.34729 -14.29136,10.67117 -21.46074,15.98152 -0.0511,0.0379 -0.11945,-0.0173 -0.1543,-0.0399 29.7106,-22.23431 27.503,-20.29934 -0.0652,-0.0337 -0.011,0.008 -0.27488,0.0105 -0.32193,0.0129 56.92468,-42.32266 0.24538,-0.1252 -0.0382,-0.004 -0.20038,0.0856 57.11739,-42.43853 -0.48672,0.38845 -0.0211,1e-5 -0.16038,0.0293 -0.17089,-0.0387 -1.254,-8.18333 14.26978,-10.572 21.42401,-15.83727 0.0575,-0.0423 -0.0841,0.11215 -0.14124,0.15491 -7.16252,5.35001 -14.34328,10.68069 -21.51493,16.02104 -0.15522,0.0104 -0.4623,-0.0301 -0.41857,-0.0628 7.07524,-5.2948 14.17168,-10.56741 21.30451,-15.80074 0.0445,-0.0326 0.0674,0.11934 0.0234,0.1525 -7.12806,5.37303 -14.31883,10.67988 -21.47824,16.01981 -0.65853,0.17636 -1.32529,0.49113 -1.92072,0.81353 28.22316,-21.03372 28.01326,-20.8619 -0.68152,0.46033 0,0 21.3505,-15.93388 21.3505,-15.93388 v 0 c -28.239056,21.16892 -28.030249,20.99606 0.6815,-0.46032 0.59545,-0.3224 1.26219,-0.63717 1.92072,-0.81353 -7.07424,5.28265 -14.11711,10.59871 -21.22273,15.84793 -0.0445,0.0328 -0.0673,-0.11919 -0.0234,-0.15249 7.10074,-5.3886 14.23802,-10.73914 21.39647,-16.06701 0.0606,-0.0452 0.33097,0.15366 0.41856,0.0628 -7.06202,5.28222 -14.11486,10.57417 -21.18603,15.8467 -0.0574,0.0427 0.0842,-0.11183 0.14121,-0.15489 7.09243,-5.36575 14.19923,-10.71649 21.304,-16.06935 0.0135,-0.01 -0.0292,0.0238 -0.0272,0.0389 0.01,0.068 0.14968,0.0387 0.17088,0.0387 -56.266902,42.15396 0.27176,-0.29656 0.48672,-0.38844 0.27443,-0.11731 -56.898491,42.65835 0.0382,0.004 0.10737,-0.006 0.40369,-0.0748 0.32194,-0.0129 -33.512156,25.39727 -22.98205,17.11967 0.0652,0.0337 0.0779,0.0501 0.0292,0.0303 0.15429,0.0398 -7.08008,5.29542 -14.16015,10.59082 -21.24023,15.88623 -0.0321,0.0239 -0.021,-0.0873 0.011,-0.11134 21.40939,-16.09589 12.22056,-14.98981 21.77816,-16.09331 8.37448,-3.905 0.64775,-0.32285 -20.79045,15.64027 -0.16591,0.12356 0.28023,-0.29587 0.44558,-0.42008 8.01401,-6.01951 15.14086,-12.25437 23.5734,-17.4199 0.50088,-0.24362 1.49116,-0.70956 1.96528,-1.00187 0.33321,-0.20543 0.62835,-0.45643 0.95625,-0.66852 0.8427,-0.54508 1.74703,-1.01567 2.58229,-1.57099 0.23466,-0.1415 0.45801,-0.29913 0.70401,-0.42446 1.55655,-0.793 -0.10914,0.21741 1.47864,-0.68905 0.93952,-0.53636 0.52405,-0.36734 1.40202,-0.93478 0.1812,-0.1171 0.37602,-0.21664 0.56404,-0.32495 0.97882,-0.65495 2.0228,-1.20913 3.11226,-1.70676 -6.92291,5.17401 -27.59041,20.80124 -20.76867,15.52204 7.23662,-5.60027 14.66601,-11.00044 22.01347,-16.48536 0.61908,-0.46216 2.56452,-1.74911 1.94803,-1.28421 -6.70806,5.05862 -13.46069,10.07028 -20.19394,15.10235 -0.3954,0.29551 0.78692,-0.5951 1.18042,-0.89265 1.05052,-1.01114 1.04978,-0.9709 1.96278,-1.98992 0.20592,-0.22983 0.38603,-0.47779 0.59952,-0.70208 6.40951,-6.73398 26.66942,-2.19138 22.71327,-17.1078 -6.98716,5.21454 -13.9698,10.43387 -20.96148,15.64361 -0.14527,0.10819 0.28802,-0.21943 0.42174,-0.33876 0.14511,-0.12953 0.25753,-0.28805 0.41388,-0.40684 7.21065,-5.4778 14.45266,-10.92285 21.68315,-16.3799 0.51734,-0.39046 0.70547,-0.50301 1.28604,-0.89236 -6.85577,5.13074 -13.68734,10.28719 -20.56733,15.39223 -0.27889,0.20695 0.50869,-0.4613 0.75973,-0.69476 0.38138,-0.35466 0.70585,-0.76124 1.1269,-1.07843 18.90398,-14.2415 14.40443,-11.00576 22.14663,-16.56574 9.11849,-5.51826 -28.31526,21.98951 -19.02535,14.19613 0.49826,-0.44263 0.98139,-0.89551 1.45772,-1.35696 0.15946,-0.15449 0.29636,-0.32956 0.47615,-0.46523 19.82697,-14.96187 14.44435,-11.15629 22.3068,-16.70603 8.12712,-4.71653 0.95203,-0.57991 -20.28745,15.31877 -0.11047,0.0827 0.27995,-0.22429 0.7039,-0.62972 0.24173,-0.23116 0.39642,-0.39852 0.62524,-0.63815 6.66537,-6.51054 0.4986,-0.51389 22.01883,-16.5136 0.29636,-0.22034 1.27754,-0.76809 0.98288,-0.54598 -21.16332,15.95048 -25.60784,22.45375 -20.53993,15.15419 0.28119,-0.48597 0.58318,-0.98957 1.00294,-1.39641 0.51072,-0.49501 1.17993,-0.86351 1.62645,-1.41691 7.21139,-8.48563 -21.82283,15.81059 22.49873,-17.37665 0.30611,-0.22919 1.3471,-0.7602 1.04225,-0.52971 -6.9169,5.22925 -13.89059,10.39874 -20.83589,15.5981 0.0841,-0.14622 0.18438,-0.28597 0.2523,-0.43872 0.1487,-0.33476 0.17328,-0.65744 0.36014,-0.97973 0.29168,-0.50309 0.76616,-0.88317 1.12128,-1.34595 0.41365,-0.44203 0.45823,-0.72966 0.71873,-1.24035 0.0896,-0.17556 0.22964,-0.32873 0.31504,-0.50591 0.11212,-0.23239 0.29862,-0.85277 0.38175,-1.11714 0.42801,-0.80705 0.0579,-0.0407 0.36063,-0.88375 0.0445,-0.12393 0.12646,-0.23672 0.16056,-0.36326 0.11122,-0.4128 0.0779,-0.86264 0.35382,-1.2388 0.0566,-0.42181 0.033,-0.41535 0.18509,-0.83199 0.0433,-0.1188 0.12316,-0.22721 0.15245,-0.34937 0.1172,-0.48801 0.0661,-1.01821 0.3484,-1.4768 0.029,-0.1539 0.0361,-0.31239 0.0872,-0.46166 0.0739,-0.21614 0.28564,-0.38384 0.34841,-0.60275 0.0871,-0.30351 -0.0707,-0.66295 -1.2e-4,-0.97014 1e-5,-0.51298 9.7e-4,-1.02597 4e-5,-1.53895 -0.001,-0.38998 -0.003,-0.77996 0.006,-1.16987 -9.8e-4,-0.32422 -0.0588,-0.64806 -0.003,-0.97129 0.13109,-0.51885 0.14437,-0.99275 -0.36844,-1.35394 0.0449,-0.42385 0.18567,-0.36597 -0.1567,-0.73885 -0.0462,-0.0637 -0.12242,-0.11685 -0.13854,-0.19134 -0.0203,-0.0924 0.0282,-0.18677 0.0354,-0.28071 0.019,-0.25022 -0.14795,-0.4074 -0.3551,-0.56541 10e-4,-0.40003 -0.21616,-0.72059 -0.42331,-1.05233 -0.63875,-0.51925 -0.20041,-1.09943 -0.27243,-1.77135 -0.0926,-0.21866 -0.31197,-0.36577 -0.36583,-0.5508 -0.0498,-0.17117 0.15429,-0.0514 0.0305,-0.23815 -0.0166,-0.026 -0.0638,-0.0205 -0.0958,-0.0308 -0.59293,-0.40186 -0.11062,-0.42544 -0.33148,-0.97133 -0.0227,-0.0275 -0.27047,-0.32412 -0.27823,-0.3535 -0.0289,-0.10999 0.0135,-0.22643 9.7e-4,-0.33892 -0.0299,-0.28781 -0.16056,-0.52493 -0.34927,-0.75497 -0.006,-0.27457 -0.0525,-0.49928 -0.21787,-0.7365 -0.0384,-0.0551 -0.10858,-0.094 -0.13123,-0.15556 -0.0542,-0.14747 0.1908,-0.32733 -0.0354,-0.4644 -0.0938,-0.20874 -0.2278,-0.40283 -0.31045,-0.61525 -0.0385,-0.099 -0.0342,-0.20817 -0.0674,-0.30867 -0.0723,-0.21686 -0.23008,-0.40892 -0.28273,-0.63018 -0.0249,-0.10438 -0.006,-0.21331 -0.009,-0.319977 -0.0714,-0.287542 -0.30273,-0.660398 -0.34071,-0.892492 -0.0149,-0.08941 0.0338,-0.179053 0.0334,-0.269393 -0.001,-0.287721 -0.0634,-0.36118 -0.1742,-0.643984 -0.38307,-0.811074 -0.58154,-1.68169 -1.07588,-2.453699 -0.24777,-0.349127 -0.40333,-0.723817 -0.49182,-1.133676 -0.0299,-0.138165 -0.006,-0.283518 -0.0414,-0.420464 -0.0284,-0.107081 -0.30792,-0.549382 -0.34886,-0.616706 -0.28195,-0.980344 -0.61503,-1.961352 -1.17082,-2.84982 -0.1372,-0.287354 -0.21672,-0.5948 -0.35575,-0.88142 -0.0544,-0.111988 -0.15872,-0.200216 -0.21866,-0.309904 -0.20093,-0.367544 -0.35569,-0.774756 -0.46543,-1.1704 -0.34833,-0.632764 -0.008,0.04609 -0.28146,-0.736584 -0.21004,-0.599339 -0.51183,-1.151517 -0.82929,-1.708987 -0.0871,-0.152678 -0.16868,-0.307694 -0.25287,-0.461541 -0.0403,-0.09565 -0.21895,-0.494162 -0.22591,-0.603067 -0.008,-0.1038 0.055,-0.203536 0.0592,-0.307436 0.0165,-0.410661 -0.23215,-0.713042 -0.52358,-1.009178 -0.0503,-0.0679 -0.36303,-0.502052 -0.45048,-0.577355 -0.1672,-0.143954 -0.36239,-0.167406 -0.47909,-0.353379 -0.052,-0.08286 -0.0477,-0.187419 -0.0981,-0.271107 -0.0473,-0.0789 -0.12705,-0.138801 -0.19045,-0.208196 -0.24437,-0.243215 -0.4921,-0.457219 -0.82715,-0.600648 -0.0913,-0.03905 -0.19484,-0.05313 -0.28333,-0.09684 -0.10925,-0.05382 -0.20361,-0.128917 -0.30542,-0.193366 -0.13093,-0.06443 -0.26166,-0.12877 -0.39249,-0.193169 -0.47458,3.77e-4 -0.64763,-0.02121 -1.13112,0.07771 -0.59154,0.121067 -1.10966,0.413744 -1.74204,0.30578 -0.67257,0.0089 -1.34935,0.05313 -2.01798,-0.0344 -0.43666,-0.03261 -0.83153,-0.02815 -1.26324,0.06086 -0.28483,0.05868 -0.54617,0.209414 -0.83745,0.231945 -0.13571,0.01051 -0.27014,-0.03093 -0.4052,-0.04629 -0.39059,0.0069 -0.56626,-0.02191 -0.93936,0.118014 -0.13033,0.04887 -0.23333,0.143548 -0.35859,0.202129 -0.51299,0.239954 -1.0426,0.470779 -1.58953,0.642716 -1.15638,0.213379 -2.24167,0.643478 -3.36685,0.958626 -1.19416,0.223599 -2.38618,0.563329 -3.33147,1.278165 0,0 21.35052,-15.933871 21.35052,-15.933871 z"
       inkscape:connector-curvature="0"
       style="stroke-width:0.4599832;fill:#00ffcc" />
    <path
       id="path28"
       d="m 92.810521,173.27519 c 0.863708,-0.76819 1.727417,-1.53637 2.591125,-2.30458 7.283774,-5.40812 14.553754,-10.83096 21.851314,-16.22436 0.16481,-0.12187 0.36082,-0.20649 0.53347,-0.31954 0.15799,-0.10342 0.30484,-0.21949 0.45725,-0.32923 0.17956,-0.10814 0.36138,-0.21352 0.53891,-0.32438 0.16371,-0.10222 0.63757,-0.42916 0.4845,-0.3147 -6.97834,5.21811 -13.97419,10.41762 -20.961286,15.62643 7.281946,-5.41296 14.527436,-10.86496 21.845856,-16.23889 0.0879,-0.0646 0.99958,-0.28311 1.05062,-0.30501 0.24418,-0.1048 0.89377,-0.54346 0.68655,-0.38794 -6.90236,5.18081 -27.583767,20.74836 -20.77754,15.46788 7.18979,-5.57806 14.61902,-10.90723 21.92852,-16.36083 -40.338944,30.10248 -15.18681,11.29271 0.81671,-0.48431 0.0822,-0.0605 0.20141,-0.0662 0.29227,-0.11591 0.40642,-0.2223 0.45725,-0.32912 0.95775,-0.39188 0.57489,-0.12132 1.02558,-0.46482 1.60362,-0.57024 1.21188,-0.22101 -0.11883,0.1444 0.95099,-0.17487 0.47703,-0.3047 1.05334,-0.43863 1.56675,-0.67812 0.53933,-0.25159 0.99229,-0.57132 1.55823,-0.78305 0.40458,0.0102 0.76011,-0.13788 1.15892,-0.18216 0.16168,-0.0179 0.32825,-1.9e-4 0.48721,-0.0316 0.0737,-0.0146 0.68702,-0.24623 0.78534,-0.28293 0.79309,0.0391 1.37173,-0.50536 2.09067,-0.67739 0.18603,-0.0445 0.38352,-0.0349 0.57362,-0.0627 0.22204,-0.0325 0.44126,-0.0788 0.66188,-0.11818 0.8943,-0.0255 1.6815,-0.44633 2.57494,-0.42797 0.68795,0.11957 1.38998,0.0755 2.08736,0.0618 0.70785,-0.13106 1.28098,0.18981 1.94707,0.31094 0.58367,0.10615 0.84409,0.0783 1.44211,0.0782 0.56474,-0.131 1.03272,0.0677 1.55514,0.21178 0.11063,0.0305 0.22991,0.0366 0.3361,0.0775 0.20659,0.0796 0.38767,0.20492 0.59111,0.29075 0.31607,0.37131 0.68769,0.70961 0.96575,1.11354 0.16885,0.24519 0.33018,0.6658 0.44015,0.92351 0.99283,2.16852 -0.41665,-0.82062 0.62487,1.12205 0.0882,0.16468 0.13032,0.34618 0.20548,0.51591 0.13496,0.30463 0.35205,0.5771 0.48554,0.88223 0.0802,0.18334 0.11675,0.37955 0.17495,0.56932 0.0457,0.46582 0.0716,0.98882 0.26272,1.43216 0.0503,0.11705 0.15872,0.20853 0.21756,0.32246 0.19263,0.37339 0.16774,0.43834 0.22174,0.83284 0.29426,1.09083 0.70516,2.14596 1.01643,3.23429 0.11093,1.22097 0.487,2.42479 0.90356,3.59073 0.0482,0.20713 0.0788,0.41813 0.14466,0.62138 0.22737,0.70162 0.20004,0.20478 0.33765,0.91432 0.0245,0.12609 0.006,0.25689 0.0301,0.38289 0.0601,0.30263 0.17549,0.59449 0.26097,0.89223 0.13138,0.312 0.001,0.63681 0.0465,0.95207 0.0551,0.39619 0.19457,0.56 0.28315,0.93891 0.10152,0.43495 0.074,0.62378 0.0756,1.07888 0.0553,0.46009 -0.18547,0.96656 -0.0893,1.42362 0.0245,0.11596 0.12123,0.21004 0.17365,0.3184 0.2166,0.44769 0.17126,0.3688 0.27899,0.83335 -0.0557,1.37579 -0.12034,2.74863 -0.0989,4.127 0.23818,1.2886 0.77271,2.5021 1.1429,3.76037 0.008,0.10066 -0.006,0.20406 0.0217,0.30181 0.0481,0.16947 0.3674,0.54073 0.426,0.6335 0.32737,0.51809 0.49804,1.03614 0.62623,1.61464 0.0626,0.2252 0.1088,0.45449 0.18763,0.67558 0.20392,0.57165 0.38415,0.71518 0.48847,1.30511 0.0449,0.25405 0.022,0.51432 0.0517,0.77011 0.0566,0.48419 0.15726,0.96351 0.22871,1.44615 0.0135,0.20502 -9.9e-4,0.4126 0.0377,0.61501 0.0283,0.14805 0.11048,0.28394 0.16129,0.42719 0.21392,0.60363 0.42139,1.22423 0.76404,1.77932 0.55317,1.70534 0.65682,3.49122 1.03023,5.23108 0.0503,0.84349 0.32165,1.62395 0.66423,2.40262 0.12376,0.28108 0.28357,0.5504 0.38281,0.83905 0.0957,0.27853 0.37729,1.6397 0.43488,1.90921 0.36005,0.92616 0.36147,1.91528 0.6404,2.85723 0.077,0.26011 0.20455,0.50639 0.29617,0.76273 0.49203,1.37661 -0.10417,-0.1187 0.41368,1.1447 0.0472,1.03334 1.00932,1.73 1.39543,2.6412 0.11152,0.26333 0.14303,0.54821 0.21448,0.82233 0.15394,0.73309 0.32481,1.49364 0.77385,2.13888 0.0339,0.0487 0.73552,0.78735 0.77078,0.83071 0.13527,0.16633 0.24812,0.34622 0.37218,0.51933 0.70229,1.41772 2.01217,2.434 3.42064,3.29141 0.36927,0.24398 1.04674,0.71165 1.46288,0.91059 0.34974,0.16719 0.66275,0.19119 1.03399,0.29379 1.14606,0.3167 0.0284,0.082 1.28911,0.31459 0.30483,0.0629 0.61375,0.11184 0.91447,0.18881 0.78111,0.1999 0.94833,0.3463 1.7259,0.46561 0.81442,0.12489 1.69246,-0.0148 2.5048,-0.0716 1.81098,-0.16468 3.64463,0.11144 5.44267,-0.18342 0.45127,-0.0741 0.88695,-0.21088 1.33521,-0.29826 0.45451,-0.0887 0.91458,-0.15298 1.37189,-0.22954 0.46699,-0.0786 0.93049,-0.17582 1.40103,-0.23534 0.46806,-0.0592 0.94124,-0.0804 1.41186,-0.12059 0.52745,-0.0526 1.05719,-0.0895 1.58234,-0.15788 1.62025,-0.21068 3.20603,-0.57636 4.78932,-0.93814 1.83889,-0.4699 3.51309,-1.31711 5.06888,-2.29417 0.61476,-0.38607 2.36393,-1.65698 1.78663,-1.22761 -20.66944,15.37348 -25.49117,20.17357 -18.51857,13.39063 0.31749,-0.27798 0.63498,-0.55593 0.9525,-0.8339 0,0 21.35049,-15.93389 21.35049,-15.93389 v 0 c -0.31749,0.27797 -0.63502,0.55595 -0.95251,0.83393 -7.96414,7.74752 -1.26172,1.32942 -24.18241,18.47712 -2.02896,1.51794 -4.30426,2.83188 -6.8555,3.52177 -1.58331,0.36178 -3.16909,0.72747 -4.78931,0.93814 -0.52519,0.0684 -1.0549,0.10525 -1.58234,0.15789 -0.47063,0.0401 -0.9438,0.0614 -1.41187,0.12045 -0.47054,0.0595 -0.93403,0.1569 -1.40106,0.23534 -0.45728,0.0766 -0.91734,0.14102 -1.37186,0.22956 -0.44825,0.0873 -0.88393,0.22422 -1.3352,0.29825 -1.79804,0.29502 -3.6317,0.0187 -5.44268,0.18345 -0.81234,0.0573 -1.69038,0.19656 -2.5048,0.0716 -0.7776,-0.11937 -0.94478,-0.26569 -1.72589,-0.46561 -0.30073,-0.0768 -0.60965,-0.12598 -0.91447,-0.1888 -1.26073,-0.23254 -0.14303,9.9e-4 -1.28911,-0.3146 -0.37125,-0.10269 -0.68426,-0.12651 -1.034,-0.29378 -0.41614,-0.19894 -1.09361,-0.66663 -1.4629,-0.91061 -1.40845,-0.85738 -2.71833,-1.87366 -3.42061,-3.29139 -0.12407,-0.17311 -0.23691,-0.353 -0.37218,-0.51934 -0.0352,-0.0435 -0.7369,-0.78203 -0.77079,-0.8307 -0.44905,-0.64527 -0.61989,-1.40579 -0.77385,-2.1389 -0.0715,-0.27409 -0.10284,-0.55899 -0.21447,-0.8223 -0.38611,-0.91122 -1.34831,-1.60786 -1.39544,-2.64122 -0.51777,-1.26346 0.0784,0.23192 -0.41368,-1.1447 -0.0917,-0.25633 -0.21915,-0.50261 -0.29619,-0.76272 -0.27894,-0.94195 -0.28033,-1.93109 -0.64039,-2.85723 -0.0575,-0.26952 -0.33913,-1.63069 -0.43489,-1.90922 -0.0991,-0.28864 -0.25915,-0.55797 -0.38279,-0.83905 -0.34257,-0.77867 -0.6139,-1.55912 -0.66424,-2.40262 -0.37339,-1.73987 -0.47706,-3.52573 -1.03021,-5.23106 -0.34266,-0.5551 -0.55013,-1.17573 -0.76405,-1.77933 -0.0508,-0.1433 -0.13288,-0.27911 -0.1613,-0.42718 -0.0385,-0.20241 -0.025,-0.41002 -0.0377,-0.61501 -0.0714,-0.48265 -0.17199,-0.96196 -0.2287,-1.44617 -0.0299,-0.25577 -0.008,-0.51606 -0.0517,-0.7701 -0.10439,-0.58995 -0.28453,-0.73349 -0.48845,-1.3051 -0.0788,-0.22111 -0.12511,-0.4504 -0.18764,-0.67559 -0.1281,-0.57851 -0.29885,-1.09656 -0.62623,-1.61465 -0.0587,-0.0929 -0.37788,-0.46402 -0.42598,-0.63349 -0.0278,-0.0977 -0.0149,-0.20121 -0.0219,-0.3018 -0.37017,-1.25828 -0.90469,-2.47177 -1.1429,-3.7604 -0.0214,-1.37836 0.0431,-2.75119 0.0989,-4.127 -0.10759,-0.46453 -0.0626,-0.38564 -0.27898,-0.83332 -0.0524,-0.10834 -0.14933,-0.20246 -0.17366,-0.31841 -0.0961,-0.45706 0.14452,-0.96354 0.0893,-1.42362 -0.001,-0.4551 0.0262,-0.64393 -0.0754,-1.07888 -0.0887,-0.3789 -0.22805,-0.54273 -0.28316,-0.93892 -0.0439,-0.31526 0.085,-0.64007 -0.0465,-0.95207 -0.0855,-0.29774 -0.2009,-0.5896 -0.26098,-0.89223 -0.025,-0.12592 -0.006,-0.25681 -0.0301,-0.38289 -0.1375,-0.70954 -0.11024,-0.21268 -0.33766,-0.91431 -0.0659,-0.20326 -0.0964,-0.41425 -0.14465,-0.62137 -0.41657,-1.16597 -0.79249,-2.36978 -0.90354,-3.59075 -0.3113,-1.08832 -0.72217,-2.14345 -1.01644,-3.23429 -0.0539,-0.3945 -0.0291,-0.45944 -0.22175,-0.83283 -0.0588,-0.11395 -0.1672,-0.20541 -0.21754,-0.32245 -0.19095,-0.44336 -0.21703,-0.96636 -0.26274,-1.43217 -0.0583,-0.18977 -0.0948,-0.38599 -0.17494,-0.56933 -0.13347,-0.30512 -0.35057,-0.5776 -0.48553,-0.88221 -0.0753,-0.16975 -0.1172,-0.35125 -0.2055,-0.51593 -1.0415,-1.94267 0.36797,1.04649 -0.62485,-1.12205 -0.11002,-0.25771 -0.2714,-0.67833 -0.44016,-0.92351 -0.27804,-0.40393 -0.64967,-0.74223 -0.96576,-1.11354 -0.20343,-0.0858 -0.38451,-0.21114 -0.59111,-0.29076 -0.10615,-0.0409 -0.22556,-0.047 -0.33608,-0.0775 -0.52245,-0.14408 -0.99042,-0.34277 -1.55514,-0.21177 -0.59802,9e-5 -0.85844,0.028 -1.44212,-0.0782 -0.66608,-0.12114 -1.23921,-0.44199 -1.94709,-0.31094 -0.69737,0.0138 -1.39938,0.0578 -2.08733,-0.0619 -0.89345,-0.0183 -1.68065,0.40252 -2.57494,0.42798 -0.22064,0.0393 -0.43986,0.0856 -0.66191,0.11817 -0.19008,0.0279 -0.38757,0.0182 -0.57362,0.0627 -0.71891,0.17204 -1.29755,0.71639 -2.09066,0.67741 -0.0982,0.0367 -0.71164,0.26833 -0.78534,0.28292 -0.15891,0.0314 -0.32563,0.0138 -0.4872,0.0316 -0.39881,0.0443 -0.75434,0.19232 -1.15892,0.18216 -0.56594,0.21172 -1.01888,0.53146 -1.55823,0.78304 -0.51341,0.2395 -1.0897,0.37343 -1.56675,0.67813 -1.0698,0.31926 0.26088,-0.0462 -0.95098,0.17486 -0.57805,0.10544 -1.02874,0.44891 -1.60362,0.57024 -0.5005,0.0627 -0.55134,0.16959 -0.95778,0.39189 -0.0908,0.0497 -0.37346,0.1774 -0.29225,0.11591 15.33663,-11.61513 41.39147,-31.01816 -0.8167,0.48431 6.92416,-5.16898 27.58477,-20.79212 20.77247,-15.50692 -7.19593,5.58282 -14.59312,10.95715 -21.92345,16.39987 -0.578079,0.42921 -0.632019,0.35869 -1.262235,0.54166 -0.159822,0.0464 -0.602827,0.24841 -0.474941,0.1513 6.913116,-5.25011 13.903416,-10.41925 20.855106,-15.62887 -7.24656,5.41377 -14.48459,10.8366 -21.739681,16.24131 -0.43463,0.32378 -1.01297,0.66205 -1.480649,0.96831 -0.172733,0.11297 -0.69699,0.44288 -0.533483,0.31954 6.934603,-5.23053 13.899803,-10.42892 20.849693,-15.64338 -0.86371,0.7682 -1.72743,1.53639 -2.59115,2.30458 0,0 -21.350486,15.93387 -21.350486,15.93387 z"
       inkscape:connector-curvature="0"
       style="stroke-width:0.4599832;fill:#00ffcc" />
    <path
       id="path30"
       d="m 50.142554,200.17316 c -13.156285,2.90763 -30.636581,21.09375 29.701463,-22.42434 0.463509,-0.33431 1.078754,-0.45571 1.601259,-0.7121 2.160715,-1.06028 2.214119,-1.19888 4.372683,-2.60185 4.568608,-2.88523 8.747048,-6.24015 13.348971,-9.08594 2.34658,-1.45109 6.54588,-3.68234 8.95322,-4.98802 6.1586,-3.11263 3.0675,-1.66635 9.26498,-4.35297 0,0 -30.194148,22.5339 -30.194148,22.5339 v 0 c -6.197493,2.68664 -3.106376,1.24034 -9.264999,4.35297 -2.407335,1.30567 -6.606642,3.53693 -8.953206,4.98804 -4.601937,2.84577 -8.780363,6.2007 -13.348978,9.08591 -2.158561,1.40298 -2.211966,1.54159 -4.37268,2.60187 -0.522506,0.25641 -2.051027,1.06092 -1.601259,0.71209 4.770177,-3.69962 17.901523,-19.82047 30.686851,-22.64346 0,0 -30.194157,22.5339 -30.194157,22.5339 z"
       inkscape:connector-curvature="0"
       style="stroke-width:0.4599832;fill:#00ffcc" />
    <path
       id="path32"
       d="m 106.69595,94.599113 c 3.03865,-1.428989 5.96092,-3.051235 8.9917,-4.491623 1.44133,-0.685 2.9226,-1.301627 4.37267,-1.971928 11.27402,-5.211494 -1.57526,0.579882 10.50058,-4.820271 7.83008,-3.671747 15.61644,-7.413563 23.30298,-11.318058 0,0 -30.19417,22.533902 -30.19417,22.533902 v 0 c -7.68651,3.904495 -15.47288,7.646305 -23.30297,11.318055 -12.075831,5.40016 0.77344,-0.39122 -10.500578,4.82027 -1.45006,0.6703 -2.931327,1.28693 -4.37268,1.97193 -3.030757,1.44039 -5.953042,3.06264 -8.991697,4.49162 0,0 30.194165,-22.533897 30.194165,-22.533897 z"
       inkscape:connector-curvature="0"
       style="stroke-width:0.4599832;fill:#00ffcc" />
  </g>
</svg>
