<?xml version="1.0" encoding="UTF-8" standalone="no"?>
<!-- Created with Inkscape (http://www.inkscape.org/) -->

<svg
   xmlns:dc="http://purl.org/dc/elements/1.1/"
   xmlns:cc="http://creativecommons.org/ns#"
   xmlns:rdf="http://www.w3.org/1999/02/22-rdf-syntax-ns#"
   xmlns:svg="http://www.w3.org/2000/svg"
   xmlns="http://www.w3.org/2000/svg"
   xmlns:sodipodi="http://sodipodi.sourceforge.net/DTD/sodipodi-0.dtd"
   xmlns:inkscape="http://www.inkscape.org/namespaces/inkscape"
   width="317.80121mm"
   height="100mm"
   viewBox="0 0 317.8012 100"
   version="1.1"
   id="svg8"
   sodipodi:docname="rml.svg"
   inkscape:version="0.92.3 (2405546, 2018-03-11)">
  <defs
     id="defs2" />
  <sodipodi:namedview
     id="base"
     pagecolor="#ffffff"
     bordercolor="#666666"
     borderopacity="1.0"
     inkscape:pageopacity="0.0"
     inkscape:pageshadow="2"
     inkscape:zoom="1.8018125"
     inkscape:cx="611.66471"
     inkscape:cy="187.86639"
     inkscape:document-units="mm"
     inkscape:current-layer="layer1"
     showgrid="false"
     fit-margin-top="0"
     fit-margin-left="100"
     fit-margin-right="100"
     fit-margin-bottom="0"
     inkscape:window-width="1600"
     inkscape:window-height="845"
     inkscape:window-x="0"
     inkscape:window-y="27"
     inkscape:window-maximized="1" />
  <metadata
     id="metadata5">
    <rdf:RDF>
      <cc:Work
         rdf:about="">
        <dc:format>image/svg+xml</dc:format>
        <dc:type
           rdf:resource="http://purl.org/dc/dcmitype/StillImage" />
        <dc:title></dc:title>
      </cc:Work>
    </rdf:RDF>
  </metadata>
  <g
     inkscape:label="Layer 1"
     inkscape:groupmode="layer"
     id="layer1"
     transform="translate(33.882017,-65.086304)">
    <circle
       style="fill:#bfbfbf;fill-opacity:1;stroke-width:0.42178053"
       id="path10"
       cx="124.65031"
       cy="115.0863"
       r="50" />
    <path
       style="fill:#003399;fill-opacity:1;stroke-width:0.26458332"
       id="path18"
       d="m 73.835454,163.52124 c -0.01044,-0.082 -0.02437,-0.16351 -0.04053,-0.24454 -0.02911,-0.14728 -0.06459,-0.29312 -0.1032,-0.43815 -0.04703,-0.17892 -0.09569,-0.35747 -0.146092,-0.53547 -0.06085,-0.21364 -0.122404,-0.42706 -0.186122,-0.63986 -0.06891,-0.23204 -0.136154,-0.46457 -0.205403,-0.69651 -0.07204,-0.24136 -0.144157,-0.4827 -0.217398,-0.7237 -0.0756,-0.25531 -0.150513,-0.5108 -0.223424,-0.76688 -0.07845,-0.27176 -0.153253,-0.54454 -0.228836,-0.81711 -0.07717,-0.27929 -0.153828,-0.55872 -0.230415,-0.83817 -0.0785,-0.29685 -0.158992,-0.59316 -0.236401,-0.89029 -0.08174,-0.30852 -0.166416,-0.61624 -0.250247,-0.92419 -0.08366,-0.31698 -0.166467,-0.63418 -0.246826,-0.95202 -0.08344,-0.33283 -0.166291,-0.66582 -0.247194,-0.99928 -0.08289,-0.34415 -0.168456,-0.68764 -0.25227,-1.03156 -0.0831,-0.3456 -0.164694,-0.69155 -0.24753,-1.03721 -0.0837,-0.34063 -0.169071,-0.68087 -0.255634,-1.02079 -0.08701,-0.33825 -0.1731,-0.6767 -0.256346,-1.0159 -0.09123,-0.36097 -0.173634,-0.72405 -0.259265,-1.08636 -0.08604,-0.36664 -0.173077,-0.73304 -0.26163,-1.09909 -0.08628,-0.35752 -0.168833,-0.71592 -0.253196,-1.07391 -0.08452,-0.36931 -0.166733,-0.73914 -0.247451,-1.10931 -0.08361,-0.36333 -0.166466,-0.72684 -0.250205,-1.09015 -0.08387,-0.35306 -0.160319,-0.70777 -0.235954,-1.06266 -0.07774,-0.35393 -0.151045,-0.7088 -0.225568,-1.06342 -0.07169,-0.33785 -0.136721,-0.67703 -0.203663,-1.01584 -0.06682,-0.33808 -0.128842,-0.67704 -0.189506,-1.01627 -0.06176,-0.33607 -0.124854,-0.6719 -0.186156,-1.00806 -0.06117,-0.32388 -0.114911,-0.64908 -0.169443,-0.97412 -0.05559,-0.33579 -0.109221,-0.67188 -0.165425,-1.00758 -0.05568,-0.33283 -0.108429,-0.66614 -0.163309,-0.99909 -0.05524,-0.3262 -0.106681,-0.65302 -0.160408,-0.97946 -0.05432,-0.34094 -0.103852,-0.68263 -0.154423,-1.02415 -0.05412,-0.3564 -0.104418,-0.71338 -0.15152,-1.07078 -0.04622,-0.37143 -0.09544,-0.74249 -0.142089,-1.11387 -0.05004,-0.38518 -0.09202,-0.77134 -0.132399,-1.15764 -0.04192,-0.4016 -0.08034,-0.80354 -0.118337,-1.20553 -0.03392,-0.4033 -0.07697,-0.80574 -0.115665,-1.2086 -0.04014,-0.40325 -0.07404,-0.80707 -0.108414,-1.21084 -0.03484,-0.4038 -0.06006,-0.80838 -0.0863,-1.21282 -0.02876,-0.3964 -0.04704,-0.79332 -0.06357,-1.19038 -0.01522,-0.40227 -0.0282,-0.80462 -0.04384,-1.20686 -0.01487,-0.39451 -0.02768,-0.78908 -0.04073,-1.18365 -0.0079,-0.39952 -0.01411,-0.79912 -0.01487,-1.19872 5.1e-5,-0.40181 -8.1e-5,-0.80361 -2.67e-4,-1.20542 4.4e-5,-0.39255 3.86e-4,-0.7851 0.002,-1.17766 5.45e-4,-0.39376 0.0016,-0.78749 0.0067,-1.18122 0.0062,-0.40089 0.01417,-0.80175 0.02185,-1.20261 0.01,-0.40818 0.02115,-0.81632 0.03124,-1.2245 0.01073,-0.39742 0.01669,-0.79496 0.03001,-1.1923 0.01618,-0.40552 0.03191,-0.81105 0.04682,-1.21662 0.0167,-0.40894 0.03588,-0.81777 0.05311,-1.22669 0.02108,-0.40333 0.04264,-0.80663 0.06339,-1.20998 0.01941,-0.3912 0.04522,-0.78204 0.06919,-1.17297 0.02412,-0.38258 0.0449,-0.76538 0.0693,-1.14794 0.02671,-0.38348 0.05175,-0.76708 0.07964,-1.15048 0.02859,-0.38689 0.05742,-0.77373 0.08915,-1.16037 0.03228,-0.39699 0.0703,-0.79346 0.104731,-1.19025 0.03493,-0.39815 0.07296,-0.79602 0.109192,-1.19406 0.03518,-0.39062 0.07544,-0.78077 0.114179,-1.17105 0.04169,-0.39615 0.08348,-0.79228 0.127126,-1.18822 0.04372,-0.4029 0.0935,-0.80511 0.148227,-1.20665 0.05518,-0.40686 0.110717,-0.813699 0.171098,-1.219827 0.0608,-0.403717 0.123478,-0.80718 0.187672,-1.210376 0.06449,-0.401055 0.133766,-0.801336 0.204068,-1.201409 0.07195,-0.402072 0.146022,-0.803752 0.219716,-1.205503 0.07367,-0.39152 0.148529,-0.782804 0.228486,-1.173094 0.07956,-0.386273 0.160094,-0.772342 0.242626,-1.157993 0.08269,-0.38448 0.167584,-0.768493 0.253352,-1.152301 0.08377,-0.379297 0.169164,-0.758231 0.251835,-1.137771 0.08442,-0.382126 0.17311,-0.76328 0.261289,-1.144552 0.08658,-0.37816 0.175936,-0.755676 0.266319,-1.132942 0.08909,-0.372515 0.176037,-0.745548 0.266305,-1.117779 0.08907,-0.374405 0.184106,-0.747348 0.27727,-1.120745 0.09134,-0.371532 0.183244,-0.742911 0.271733,-1.115136 0.08724,-0.363191 0.176957,-0.72577 0.265846,-1.088558 0.08576,-0.35082 0.17146,-0.701673 0.259167,-1.052015 0.08358,-0.328874 0.166034,-0.658035 0.246435,-0.987702 0.07821,-0.307204 0.157083,-0.61423 0.233905,-0.921785 0.07119,-0.294887 0.145874,-0.588906 0.21875,-0.883378 0.07251,-0.282977 0.144772,-0.566021 0.219464,-0.848433 0.06954,-0.269604 0.141282,-0.538599 0.214185,-0.807309 0.06907,-0.256131 0.140991,-0.511482 0.211335,-0.767267 0.0643,-0.239556 0.133938,-0.477613 0.201373,-0.716294 0.06285,-0.223338 0.129964,-0.445468 0.196301,-0.667793 0.05936,-0.204521 0.118804,-0.408962 0.181618,-0.612447 0.05776,-0.186595 0.116015,-0.373033 0.172631,-0.559979 0.05062,-0.173602 0.105624,-0.345828 0.160283,-0.518181 0.05305,-0.163137 0.100312,-0.328087 0.153292,-0.491234 0.04921,-0.150932 0.09872,-0.301769 0.148181,-0.452619 0.04566,-0.136894 0.08903,-0.274529 0.132308,-0.412192 0.02593,-0.08299 0.0129,-0.04183 0.03908,-0.123472 0,0 8.331551,-4.810223 8.331551,-4.810223 v 0 c -0.02893,0.08337 -0.01433,0.0413 -0.04379,0.126196 -0.04585,0.138667 -0.09099,0.277584 -0.138415,0.415718 -0.05249,0.152197 -0.105254,0.304306 -0.155959,0.457109 -0.05305,0.164585 -0.104524,0.329678 -0.158191,0.494063 -0.05631,0.173363 -0.110595,0.34734 -0.165451,0.521164 -0.05975,0.188521 -0.119563,0.37701 -0.181199,0.564926 -0.06532,0.205258 -0.127299,0.411554 -0.190383,0.617508 -0.06819,0.224179 -0.140006,0.447263 -0.204541,0.67255 -0.07025,0.239746 -0.140659,0.479446 -0.207895,0.72006 -0.07467,0.256827 -0.149547,0.513629 -0.219274,0.77185 -0.07466,0.270296 -0.149267,0.540595 -0.221527,0.811548 -0.07605,0.283447 -0.149453,0.567574 -0.22444,0.851306 -0.07471,0.295655 -0.150551,0.591025 -0.224711,0.886819 -0.07857,0.309522 -0.160538,0.618164 -0.242566,0.926786 -0.0851,0.331662 -0.170821,0.663155 -0.257878,0.994309 -0.09139,0.351523 -0.179509,0.703917 -0.266867,1.05646 -0.0904,0.36353 -0.181311,0.72693 -0.269912,1.090905 -0.09019,0.372771 -0.183887,0.744665 -0.275225,1.117153 -0.09191,0.373344 -0.187346,0.745822 -0.275945,1.11998 -0.08881,0.372724 -0.177908,0.745382 -0.266824,1.118078 -0.09196,0.37804 -0.182796,0.75636 -0.270569,1.135396 -0.08838,0.380252 -0.173603,0.761216 -0.257648,1.14245 -0.08426,0.379856 -0.170031,0.759378 -0.254345,1.13922 -0.08712,0.38389 -0.172476,0.768176 -0.254786,1.153129 -0.08247,0.385717 -0.163655,0.771718 -0.242848,1.158123 -0.08143,0.391328 -0.158393,0.783553 -0.233703,1.176104 -0.07546,0.401777 -0.150488,0.803622 -0.221081,1.20629 -0.06876,0.400077 -0.137629,0.80014 -0.202994,1.200791 -0.06554,0.403452 -0.128394,0.807357 -0.189592,1.211484 -0.05926,0.406207 -0.117982,0.812496 -0.170722,1.21961 -0.05189,0.400884 -0.101652,0.802066 -0.143824,1.204103 -0.04355,0.395113 -0.08363,0.790596 -0.123454,1.186101 -0.03757,0.390745 -0.07901,0.781111 -0.115713,1.171937 -0.03815,0.398434 -0.0787,0.796666 -0.111801,1.19556 -0.03496,0.395433 -0.0687,0.790973 -0.09878,1.186813 -0.0318,0.38647 -0.05961,0.77323 -0.08837,1.15993 -0.02723,0.38289 -0.04988,0.7661 -0.07707,1.149 -0.02563,0.38306 -0.0457,0.76646 -0.07196,1.14948 -0.0259,0.39205 -0.05364,0.784 -0.07503,1.17633 -0.0228,0.40397 -0.04705,0.80787 -0.06686,1.21199 -0.01905,0.40923 -0.03823,0.81846 -0.05503,1.22779 -0.01289,0.40413 -0.0266,0.80822 -0.03941,1.21234 -0.01242,0.39832 -0.02259,0.79671 -0.03475,1.19504 -0.01205,0.40835 -0.02472,0.81669 -0.03238,1.22516 -0.0044,0.39965 -0.0094,0.79929 -0.01545,1.19892 -0.0054,0.39359 -0.0057,0.78719 -0.006,1.18081 -2.91e-4,0.39293 -0.0019,0.78586 -0.0039,1.17879 -0.0022,0.40254 -0.0051,0.80507 -0.0036,1.20762 0.0036,0.39845 0.0109,0.79687 0.02093,1.19522 0.01158,0.39536 0.02412,0.79068 0.03664,1.18601 0.01228,0.40217 0.02754,0.80426 0.04489,1.20625 0.01663,0.39731 0.03768,0.79439 0.06198,1.1913 0.0242,0.40507 0.04811,0.81022 0.08336,1.21451 0.0345,0.40338 0.07216,0.80648 0.110783,1.20949 0.03959,0.40295 0.07776,0.80604 0.114505,1.20926 0.0377,0.40136 0.07742,0.80256 0.122426,1.20317 0.04403,0.38465 0.09066,0.76898 0.14059,1.15291 0.04909,0.37002 0.09991,0.7398 0.149145,1.1098 0.04956,0.35629 0.100252,0.71243 0.156879,1.06768 0.05454,0.3395 0.10627,0.67945 0.164471,1.01835 0.05463,0.32631 0.107459,0.65291 0.160304,0.97952 0.05374,0.33382 0.101849,0.66853 0.15844,1.0019 0.05576,0.33509 0.112482,0.67002 0.17031,1.00476 0.05763,0.32475 0.112707,0.64993 0.167713,0.97512 0.05879,0.3372 0.118791,0.67417 0.181694,1.01064 0.0603,0.339 0.123819,0.67743 0.191688,1.01501 0.06629,0.33988 0.128702,0.68052 0.196134,1.02019 0.07003,0.35601 0.143658,0.7113 0.22169,1.06565 0.07847,0.35431 0.154024,0.70927 0.235502,1.06292 0.08203,0.36469 0.159541,0.73038 0.241793,1.09501 0.08125,0.3693 0.167675,0.73742 0.253929,1.10558 0.08487,0.35789 0.171409,0.71541 0.252838,1.07411 0.08381,0.36769 0.171611,0.73445 0.256981,1.10177 0.08682,0.36072 0.175486,0.72103 0.271061,1.07955 0.08739,0.33775 0.175958,0.67521 0.25993,1.01383 0.08566,0.34066 0.17082,0.68147 0.251021,1.02346 0.0834,0.34529 0.167368,0.69043 0.249613,1.036 0.08267,0.34398 0.168189,0.68725 0.254301,1.03039 0.08504,0.33172 0.167355,0.66413 0.253719,0.99551 0.08452,0.31593 0.169188,0.63181 0.254729,0.94746 0.08334,0.30793 0.16756,0.61562 0.251735,0.92332 0.08098,0.29512 0.165164,0.58934 0.246862,0.88426 0.07829,0.27863 0.157457,0.55702 0.233852,0.83619 0.07606,0.27187 0.153936,0.54324 0.234574,0.81379 0.07762,0.25381 0.153504,0.50817 0.23281,0.76146 0.07476,0.2402 0.147521,0.48102 0.221039,0.7216 0.07103,0.23072 0.140174,0.46203 0.212699,0.6923 0.06611,0.21064 0.13126,0.42156 0.201885,0.63075 0.05505,0.17507 0.110332,0.35006 0.16246,0.52602 0.04215,0.14158 0.0816,0.28397 0.126422,0.42475 0.02477,0.0747 0.05022,0.14924 0.07791,0.22296 0,0 -8.375433,4.83556 -8.375432,4.83556 z"
       inkscape:connector-curvature="0" />
    <path
       style="fill:#003399;fill-opacity:1;stroke-width:0.26458332"
       id="path20"
       d="m 176.64918,66.057837 c 0.0459,0.05195 0.0809,0.112483 0.11684,0.171405 0.0691,0.115169 0.13534,0.232019 0.19946,0.350032 0.0925,0.16909 0.17288,0.34439 0.25609,0.518136 0.10521,0.222886 0.20592,0.447852 0.3083,0.672041 0.12096,0.260762 0.23274,0.525527 0.34052,0.791957 0.12498,0.309108 0.2394,0.622332 0.35157,0.936272 0.12331,0.347242 0.24608,0.694671 0.36555,1.043259 0.129,0.373936 0.25224,0.749785 0.3727,1.126541 0.12948,0.412851 0.25538,0.826813 0.38272,1.240326 0.13915,0.444806 0.26644,0.893049 0.38809,1.342905 0.13511,0.509627 0.25686,1.022544 0.377,1.535851 0.13039,0.569929 0.25678,1.140755 0.38102,1.71205 0.12692,0.597329 0.24773,1.195946 0.36685,1.794873 0.11892,0.607762 0.23267,1.216529 0.34812,1.824958 0.11861,0.618118 0.22376,1.238629 0.3268,1.859488 0.10223,0.634677 0.20203,1.269736 0.30082,1.904957 0.10525,0.665762 0.19389,1.333969 0.27838,2.002632 0.0891,0.711448 0.17089,1.423808 0.25034,2.136393 0.0825,0.723845 0.15311,1.448954 0.22428,2.173974 0.0686,0.728211 0.13949,1.456193 0.20922,2.184295 0.0713,0.728385 0.13109,1.457799 0.1889,2.18735 0.0571,0.740328 0.11311,1.480735 0.1709,2.22101 0.0547,0.707152 0.10586,1.414571 0.15907,2.121835 0.0526,0.684613 0.10173,1.369493 0.15125,2.054333 0.0542,0.68511 0.0952,1.37113 0.13617,2.05713 0.042,0.6877 0.0738,1.37593 0.10716,2.06408 0.0322,0.66785 0.0613,1.33585 0.089,2.0039 0.0281,0.65551 0.045,1.31143 0.0651,1.96721 0.0183,0.63456 0.0332,1.26926 0.0419,1.90403 0.008,0.61101 0.012,1.22207 0.0156,1.83312 0.002,0.61342 -0.007,1.22681 -0.0206,1.84006 -0.0153,0.64052 -0.037,1.28087 -0.0544,1.92133 -0.0173,0.62839 -0.0386,1.25666 -0.06,1.88492 -0.0187,0.60694 -0.044,1.21362 -0.0679,1.82037 -0.0197,0.5789 -0.0474,1.15747 -0.0743,1.73607 -0.0269,0.56622 -0.0534,1.13245 -0.0834,1.69851 -0.0289,0.56228 -0.0703,1.1238 -0.11711,1.68485 -0.0438,0.55547 -0.0987,1.10995 -0.15803,1.66394 -0.059,0.55443 -0.12514,1.10804 -0.1943,1.66127 -0.0667,0.54139 -0.14368,1.08142 -0.21985,1.62154 -0.0765,0.5339 -0.15766,1.06712 -0.23914,1.60029 -0.0799,0.52587 -0.16658,1.05065 -0.25313,1.57545 -0.0852,0.51544 -0.16938,1.03106 -0.25539,1.54637 -0.0852,0.51403 -0.16881,1.02833 -0.25165,1.54276 -0.079,0.49663 -0.16213,0.9926 -0.24279,1.48897 -0.077,0.49012 -0.15351,0.98032 -0.22872,1.47071 -0.074,0.47634 -0.15229,0.95202 -0.23373,1.42714 -0.0789,0.45962 -0.16118,0.91862 -0.24154,1.37797 -0.0733,0.43805 -0.15306,0.87497 -0.23007,1.31238 -0.0715,0.42353 -0.14665,0.84639 -0.22462,1.26877 -0.0735,0.40276 -0.15149,0.80466 -0.23234,1.206 -0.079,0.39272 -0.15841,0.78538 -0.23654,1.17828 -0.0778,0.39145 -0.14513,0.78484 -0.21745,1.17729 -0.0702,0.37581 -0.13954,0.75179 -0.20597,1.1283 -0.0685,0.37136 -0.13472,0.74313 -0.2025,1.11462 -0.0656,0.36159 -0.13351,0.72275 -0.20043,1.0841 -0.0641,0.3486 -0.13003,0.69689 -0.19796,1.04477 -0.0643,0.32334 -0.12829,0.64674 -0.19684,0.96922 -0.063,0.3039 -0.12887,0.60718 -0.19518,0.91038 -0.0627,0.28791 -0.13165,0.57441 -0.1961,0.86194 -0.0645,0.27514 -0.12871,0.55032 -0.19624,0.82474 -0.0602,0.24677 -0.12341,0.49281 -0.18106,0.74019 -0.008,0.0361 -0.0167,0.0723 -0.0251,0.10847 0,0 -8.28525,4.78349 -8.28525,4.78349 v 0 c 0.01,-0.0371 0.02,-0.0742 0.0301,-0.11136 0.0674,-0.25006 0.13497,-0.50008 0.19958,-0.75089 0.0708,-0.27547 0.13796,-0.55187 0.20315,-0.82873 0.0675,-0.28846 0.13572,-0.57673 0.20215,-0.86542 0.0702,-0.30462 0.13811,-0.60975 0.20383,-0.91538 0.0713,-0.32499 0.14099,-0.65034 0.20875,-0.9761 0.0728,-0.34936 0.13986,-0.6999 0.20751,-1.05029 0.068,-0.36188 0.13446,-0.72405 0.20333,-1.08577 0.0716,-0.37154 0.13792,-0.74405 0.20549,-1.11634 0.0682,-0.3778 0.1381,-0.75527 0.21228,-1.13194 0.0752,-0.39348 0.14697,-0.78762 0.22358,-1.18083 0.0758,-0.39281 0.15322,-0.78533 0.2344,-1.17705 0.0846,-0.4035 0.16737,-0.8074 0.24369,-1.21255 0.0804,-0.42371 0.15773,-0.84797 0.23169,-1.27285 0.0789,-0.4395 0.16101,-0.87842 0.23972,-1.31796 0.0836,-0.46058 0.16936,-0.92077 0.24873,-1.38211 0.0847,-0.47693 0.16684,-0.95431 0.24325,-1.43264 0.077,-0.49065 0.15208,-0.98159 0.23087,-1.47195 0.0809,-0.49842 0.16828,-0.99571 0.25115,-1.4938 0.0859,-0.51456 0.17029,-1.02938 0.25426,-1.54427 0.0854,-0.51601 0.17096,-1.03201 0.25786,-1.54779 0.0879,-0.52585 0.17854,-1.05126 0.25828,-1.57843 0.0831,-0.53331 0.16271,-1.06719 0.24083,-1.60126 0.0773,-0.54147 0.1568,-1.08265 0.22622,-1.62521 0.0713,-0.55335 0.13739,-1.10739 0.19596,-1.66224 0.0586,-0.55435 0.11214,-1.10919 0.15925,-1.66464 0.0476,-0.56167 0.0896,-1.12375 0.12018,-1.68663 0.0297,-0.56628 0.0553,-1.13275 0.0843,-1.69906 0.031,-0.58134 0.0628,-1.16265 0.0885,-1.74427 0.0281,-0.6085 0.0559,-1.21702 0.0773,-1.8258 0.0246,-0.6304 0.0527,-1.26069 0.0711,-1.89131 0.0201,-0.63847 0.0379,-1.27705 0.0448,-1.91582 0.009,-0.61188 0.0145,-1.22383 0.0132,-1.83579 -0.003,-0.61268 -0.004,-1.22536 -0.007,-1.83805 -0.005,-0.63709 -0.0133,-1.2742 -0.0296,-1.91111 -0.0159,-0.65699 -0.0334,-1.31398 -0.0592,-1.97066 -0.0259,-0.66979 -0.0523,-1.33957 -0.0796,-2.00931 -0.0285,-0.68902 -0.0595,-1.37798 -0.10348,-2.06621 -0.0413,-0.68549 -0.0861,-1.37076 -0.13908,-2.05546 -0.0507,-0.6857 -0.0957,-1.37181 -0.14562,-2.05757 -0.049,-0.71052 -0.0918,-1.42146 -0.1416,-2.13193 -0.0505,-0.74144 -0.10379,-1.4827 -0.16714,-2.22317 -0.0619,-0.728288 -0.12765,-1.456244 -0.19456,-2.184086 -0.0677,-0.72857 -0.13834,-1.456857 -0.20751,-2.185284 -0.071,-0.724403 -0.14736,-1.448266 -0.22835,-2.171626 -0.0812,-0.710382 -0.16482,-1.420516 -0.26365,-2.128708 -0.0936,-0.66412 -0.19333,-1.327326 -0.30161,-1.989222 -0.1018,-0.634022 -0.20071,-1.268516 -0.30598,-1.901977 -0.10452,-0.619583 -0.21585,-1.237995 -0.3345,-1.855036 -0.11538,-0.60818 -0.22942,-1.216621 -0.35019,-1.823763 -0.12019,-0.597631 -0.24293,-1.194819 -0.37562,-1.78981 -0.1284,-0.56801 -0.25795,-1.135806 -0.40151,-1.700221 -0.12924,-0.507626 -0.26465,-1.0136 -0.40973,-1.516956 -0.1302,-0.445625 -0.26625,-0.889493 -0.40734,-1.331792 -0.13121,-0.410797 -0.26237,-0.821641 -0.40003,-1.230333 -0.12539,-0.37396 -0.25494,-0.746535 -0.38739,-1.118057 -0.12328,-0.346325 -0.24822,-0.692105 -0.37812,-1.036007 -0.11817,-0.310374 -0.2408,-0.619134 -0.37342,-0.923657 -0.11432,-0.262783 -0.23445,-0.52303 -0.36063,-0.780348 -0.10668,-0.221491 -0.21614,-0.441603 -0.32999,-0.659517 -0.0914,-0.169142 -0.18218,-0.338881 -0.28503,-0.501419 -0.0721,-0.113785 -0.14359,-0.22823 -0.22755,-0.333815 -0.0445,-0.05528 -0.0895,-0.111107 -0.14632,-0.154389 0,0 8.37591,-4.83583 8.37591,-4.83583 z"
       inkscape:connector-curvature="0" />
    <path
       style="fill:#cc0000;fill-opacity:1;stroke-width:0.26458332"
       id="path60"
       d="m 111.54256,87.970984 c 0.0482,-0.05972 0.10747,-0.109291 0.16792,-0.156053 3.18363,-2.116246 6.42225,-4.239255 9.94363,-5.727183 0.16801,-0.07095 0.34534,-0.110103 0.52458,-0.139239 0.2301,-0.03439 0.46306,-0.03432 0.69502,-0.02868 0.26867,0.0039 0.53375,0.04348 0.79226,0.115085 0.29143,0.08421 0.51589,0.264847 0.70961,0.491193 0.23337,0.300733 0.35437,0.660605 0.45539,1.022417 0.12031,0.475161 0.1518,0.965157 0.16955,1.453019 0.0141,0.628241 -0.0229,1.255971 -0.0596,1.882819 -0.0422,0.737396 -0.11367,1.472593 -0.18128,2.207953 -0.0784,0.803999 -0.15039,1.608599 -0.2168,2.413674 -0.0674,0.840891 -0.13582,1.681705 -0.19988,2.522858 -0.0663,0.87109 -0.13392,1.742075 -0.20017,2.613168 -0.0664,0.890947 -0.14034,1.781307 -0.21131,2.671887 -0.0701,0.888758 -0.13894,1.777608 -0.20676,2.666548 -0.0624,0.86673 -0.1303,1.73305 -0.19491,2.59962 -0.0653,0.85483 -0.12476,1.7101 -0.18332,2.56541 -0.057,0.84754 -0.10993,1.69532 -0.16114,2.54322 -0.0494,0.83597 -0.0958,1.67211 -0.13937,2.50841 -0.0416,0.81109 -0.0816,1.62228 -0.11807,2.43361 -0.0362,0.77483 -0.0683,1.54983 -0.10102,2.32481 -0.0295,0.71933 -0.0545,1.43884 -0.0789,2.15836 -0.0194,0.64105 -0.044,1.28188 -0.0726,1.92258 -0.0245,0.58031 -0.0528,1.1604 -0.0826,1.74045 -0.0285,0.53412 -0.0597,1.06809 -0.0894,1.60213 -0.0257,0.5051 -0.0543,1.01 -0.0837,1.51489 -0.0289,0.46787 -0.0542,0.93591 -0.0784,1.40403 -0.0246,0.44833 -0.0395,0.89703 -0.0532,1.34579 -0.015,0.42865 -0.0342,0.85712 -0.0521,1.28565 -0.0194,0.42826 -0.0367,0.8566 -0.0521,1.28502 -0.0152,0.42375 -0.0302,0.84751 -0.0441,1.2713 -0.0146,0.42823 -0.0352,0.85623 -0.0547,1.28426 -0.0186,0.43252 -0.0352,0.86512 -0.0509,1.29776 -0.0152,0.42901 -0.0308,0.858 -0.0442,1.28707 -0.0151,0.41741 -0.0341,0.83467 -0.0496,1.25207 -0.014,0.39869 -0.0316,0.79721 -0.0535,1.19554 -0.0201,0.3831 -0.038,0.76631 -0.0548,1.14956 -0.0164,0.36456 -0.0347,0.72904 -0.0519,1.09356 -0.0161,0.354 -0.0293,0.70811 -0.0431,1.0622 -0.01,0.33631 -0.0267,0.67232 -0.0448,1.00827 -0.0171,0.31771 -0.0306,0.6356 -0.0464,0.95338 -0.014,0.29597 -0.0293,0.59189 -0.0425,0.88791 -0.0125,0.27457 -0.0298,0.5489 -0.0463,0.82325 -0.0122,0.20355 -0.0253,0.40704 -0.0364,0.61065 0,0 -9.53655,5.50593 -9.53655,5.50593 v 0 c 0.0188,-0.20654 0.0352,-0.41329 0.0525,-0.61995 0.0228,-0.27703 0.047,-0.55406 0.061,-0.83171 0.0176,-0.29788 0.0334,-0.59586 0.0524,-0.89366 0.0195,-0.32054 0.0418,-0.6409 0.0605,-0.96149 0.0192,-0.33741 0.0362,-0.67492 0.0521,-1.0125 0.0171,-0.3559 0.0353,-0.71173 0.0525,-1.06762 0.0172,-0.36553 0.0348,-0.73105 0.0567,-1.09634 0.0233,-0.3856 0.0461,-0.77122 0.0676,-1.15692 0.021,-0.3999 0.043,-0.79974 0.0609,-1.19981 0.0216,-0.41915 0.0413,-0.83841 0.0594,-1.25772 0.0153,-0.42946 0.0293,-0.85897 0.0464,-1.28835 0.0169,-0.43274 0.0338,-0.86547 0.0516,-1.29816 0.0165,-0.42701 0.036,-0.85389 0.0491,-1.28102 0.0149,-0.42431 0.0296,-0.84863 0.0468,-1.27286 0.0173,-0.42813 0.0334,-0.8563 0.0511,-1.28442 0.0193,-0.42999 0.0396,-0.85993 0.0595,-1.2899 0.0181,-0.4512 0.0405,-0.90218 0.0657,-1.35304 0.0252,-0.47156 0.0566,-0.94274 0.0947,-1.41344 0.038,-0.50837 0.0722,-1.017 0.10275,-1.52587 0.0338,-0.53756 0.0683,-1.07507 0.10704,-1.61229 0.0424,-0.58613 0.0812,-1.17249 0.11509,-1.75918 0.0393,-0.64852 0.078,-1.29708 0.11294,-1.94586 0.0405,-0.72679 0.0804,-1.45362 0.11745,-2.1806 0.0392,-0.77905 0.0806,-1.55798 0.12198,-2.33691 0.0449,-0.81451 0.0879,-1.62912 0.13518,-2.4435 0.0481,-0.83792 0.0957,-1.67587 0.14825,-2.51353 0.0523,-0.84876 0.10607,-1.69744 0.16549,-2.54573 0.059,-0.85613 0.12108,-1.71204 0.18719,-2.56765 0.0689,-0.86885 0.13838,-1.73765 0.20687,-2.60653 0.0707,-0.89054 0.14683,-1.78064 0.21512,-2.67136 0.069,-0.88866 0.13845,-1.77728 0.2017,-2.66636 0.0643,-0.86791 0.12452,-1.7361 0.18481,-2.604298 0.0604,-0.83772 0.12165,-1.675383 0.1829,-2.513051 0.0613,-0.798933 0.12371,-1.597768 0.18712,-2.396532 0.0549,-0.725615 0.10896,-1.451655 0.13138,-2.179146 0.0162,-0.612608 0.026,-1.226372 -0.0177,-1.838182 -0.0404,-0.47708 -0.0946,-0.955492 -0.23487,-1.415304 -0.11915,-0.354845 -0.26044,-0.705184 -0.50981,-0.990998 -0.20718,-0.217122 -0.43943,-0.394982 -0.73343,-0.477443 -0.26185,-0.07103 -0.5301,-0.108858 -0.80189,-0.10952 -0.2413,-0.0013 -0.48327,0.0047 -0.7219,0.0442 -0.18975,0.03402 -0.3772,0.07929 -0.55463,0.156582 -3.82284,1.652543 12.54505,-7.563229 9.24971,-5.354094 -0.0507,0.04064 -0.10054,0.08413 -0.13722,0.13833 0,0 -9.64333,5.56758 -9.64333,5.56758 z"
       inkscape:connector-curvature="0" />
    <path
       style="fill:#cc0000;fill-opacity:1;stroke-width:0.26458332"
       id="path60-3"
       d="m 123.01175,87.838891 c 0.0482,-0.05972 0.10746,-0.109291 0.16792,-0.156053 3.18363,-2.116246 6.42224,-4.239255 9.94362,-5.727183 0.16801,-0.07095 0.34535,-0.110103 0.52459,-0.139239 0.23009,-0.03439 0.46306,-0.03432 0.69501,-0.02868 0.26867,0.0039 0.53374,0.04348 0.79225,0.115085 0.29144,0.08421 0.5159,0.264847 0.70962,0.491193 0.23337,0.300733 0.35437,0.660605 0.45539,1.022417 0.12031,0.475161 0.15179,0.965157 0.16955,1.453019 0.014,0.628241 -0.0229,1.255971 -0.0596,1.882819 -0.0422,0.737396 -0.11367,1.472593 -0.18128,2.207953 -0.0784,0.803999 -0.15039,1.608599 -0.2168,2.413674 -0.0674,0.840891 -0.13582,1.681705 -0.19988,2.522858 -0.0663,0.87109 -0.13392,1.742075 -0.20017,2.613168 -0.0664,0.890947 -0.14034,1.781307 -0.21131,2.67189 -0.0701,0.888758 -0.13894,1.777608 -0.20676,2.666548 -0.0624,0.86673 -0.1303,1.73305 -0.19491,2.59962 -0.0654,0.85483 -0.12477,1.7101 -0.18332,2.56541 -0.057,0.84754 -0.10993,1.69532 -0.16114,2.54322 -0.0494,0.83597 -0.0958,1.67211 -0.13937,2.50841 -0.0416,0.81109 -0.0816,1.62228 -0.11807,2.43362 -0.0362,0.77482 -0.0683,1.54982 -0.10102,2.32481 -0.0295,0.71933 -0.0545,1.43884 -0.0789,2.15836 -0.0194,0.64105 -0.044,1.28188 -0.0726,1.92258 -0.0245,0.58031 -0.0528,1.1604 -0.0826,1.74045 -0.0285,0.53412 -0.0597,1.06809 -0.0894,1.60213 -0.0257,0.5051 -0.0543,1.01 -0.0837,1.51489 -0.0289,0.46787 -0.0542,0.93591 -0.0784,1.40403 -0.0246,0.44833 -0.0395,0.89703 -0.0532,1.34579 -0.015,0.42865 -0.0342,0.85712 -0.0521,1.28565 -0.0194,0.42826 -0.0367,0.8566 -0.0521,1.28502 -0.0152,0.42375 -0.0302,0.84751 -0.0441,1.2713 -0.0146,0.42823 -0.0352,0.85623 -0.0547,1.28426 -0.0185,0.43252 -0.0352,0.86512 -0.0509,1.29776 -0.0152,0.42901 -0.0308,0.858 -0.0442,1.28707 -0.0151,0.41741 -0.0341,0.83467 -0.0496,1.25207 -0.014,0.39869 -0.0316,0.79721 -0.0535,1.19554 -0.0201,0.3831 -0.038,0.76631 -0.0548,1.14956 -0.0164,0.36456 -0.0347,0.72904 -0.0519,1.09356 -0.0161,0.354 -0.0293,0.70811 -0.0431,1.0622 -0.01,0.33631 -0.0267,0.67232 -0.0448,1.00827 -0.0171,0.31771 -0.0306,0.6356 -0.0464,0.95338 -0.014,0.29597 -0.0293,0.59189 -0.0425,0.88791 -0.0125,0.27457 -0.0298,0.5489 -0.0463,0.82325 -0.0122,0.20355 -0.0253,0.40704 -0.0364,0.61065 0,0 -9.53654,5.50593 -9.53654,5.50593 v 0 c 0.0188,-0.20654 0.0352,-0.41329 0.0525,-0.61995 0.0228,-0.27703 0.047,-0.55406 0.061,-0.83171 0.0176,-0.29788 0.0334,-0.59586 0.0524,-0.89366 0.0195,-0.32054 0.0418,-0.6409 0.0605,-0.96149 0.0192,-0.33741 0.0361,-0.67492 0.0521,-1.0125 0.0171,-0.3559 0.0354,-0.71173 0.0525,-1.06762 0.0172,-0.36553 0.0348,-0.73105 0.0567,-1.09634 0.0233,-0.3856 0.0461,-0.77122 0.0676,-1.15692 0.021,-0.3999 0.043,-0.79974 0.0609,-1.19981 0.0216,-0.41915 0.0413,-0.83841 0.0594,-1.25772 0.0153,-0.42946 0.0292,-0.85897 0.0464,-1.28835 0.0169,-0.43274 0.0338,-0.86547 0.0516,-1.29816 0.0165,-0.42701 0.036,-0.85389 0.0491,-1.28102 0.0149,-0.42431 0.0297,-0.84863 0.0468,-1.27286 0.0173,-0.42813 0.0334,-0.8563 0.0511,-1.28442 0.0193,-0.42999 0.0397,-0.85993 0.0595,-1.2899 0.0181,-0.4512 0.0405,-0.90218 0.0657,-1.35304 0.0252,-0.47156 0.0566,-0.94274 0.0947,-1.41344 0.038,-0.50837 0.0722,-1.017 0.10274,-1.52587 0.0338,-0.53756 0.0683,-1.07507 0.10704,-1.61229 0.0424,-0.58613 0.0812,-1.17249 0.11509,-1.75918 0.0393,-0.64852 0.078,-1.29708 0.11295,-1.94586 0.0405,-0.72679 0.0804,-1.45362 0.11744,-2.1806 0.0392,-0.77905 0.0806,-1.55798 0.12198,-2.33691 0.0449,-0.81451 0.0879,-1.62912 0.13518,-2.4435 0.0481,-0.83793 0.0957,-1.67588 0.14825,-2.51354 0.0523,-0.84876 0.10608,-1.69744 0.16549,-2.54573 0.059,-0.85613 0.12108,-1.71204 0.1872,-2.56765 0.0689,-0.86885 0.13837,-1.73765 0.20687,-2.60653 0.0707,-0.89054 0.14682,-1.78064 0.21511,-2.67136 0.069,-0.88866 0.13845,-1.77728 0.20171,-2.66636 0.0643,-0.86791 0.12452,-1.7361 0.1848,-2.604298 0.0604,-0.837723 0.12165,-1.675386 0.18291,-2.513054 0.0613,-0.798933 0.1237,-1.597768 0.18711,-2.396532 0.0549,-0.725615 0.10896,-1.451655 0.13138,-2.179146 0.0162,-0.612608 0.026,-1.226372 -0.0177,-1.838182 -0.0404,-0.47708 -0.0946,-0.955492 -0.23487,-1.415304 -0.11915,-0.354845 -0.26044,-0.705184 -0.50981,-0.990998 -0.20718,-0.217122 -0.43943,-0.394982 -0.73343,-0.477443 -0.26185,-0.07103 -0.53009,-0.108858 -0.80189,-0.10952 -0.2413,-0.0013 -0.48327,0.0047 -0.7219,0.0442 -0.18975,0.03402 -0.3772,0.07929 -0.55463,0.156582 -3.82284,1.652543 12.54505,-7.563229 9.24972,-5.354094 -0.0507,0.04064 -0.10055,0.08413 -0.13723,0.13833 0,0 -9.64333,5.56758 -9.64333,5.56758 z"
       inkscape:connector-curvature="0" />
    <path
       style="fill:#cc0000;fill-opacity:1;stroke-width:0.26458332"
       id="path60-6"
       d="m 134.31865,87.83889 c 0.0482,-0.05972 0.10747,-0.109291 0.16792,-0.156053 3.18363,-2.116246 6.42224,-4.239255 9.94362,-5.727183 0.16801,-0.07095 0.34535,-0.110103 0.52459,-0.139239 0.23009,-0.03439 0.46306,-0.03432 0.69502,-0.02868 0.26866,0.0039 0.53374,0.04348 0.79225,0.115085 0.29144,0.08421 0.51589,0.264847 0.70962,0.491193 0.23337,0.300733 0.35436,0.660605 0.45538,1.022417 0.12032,0.475161 0.1518,0.965157 0.16955,1.453019 0.014,0.628241 -0.0229,1.255971 -0.0596,1.882819 -0.0422,0.737396 -0.11366,1.472593 -0.18127,2.207953 -0.0784,0.803999 -0.1504,1.608599 -0.21681,2.413674 -0.0674,0.840891 -0.13581,1.681705 -0.19987,2.522858 -0.0663,0.87109 -0.13393,1.742075 -0.20017,2.613168 -0.0664,0.890947 -0.14034,1.781307 -0.21131,2.67189 -0.0701,0.888759 -0.13895,1.777609 -0.20677,2.666549 -0.0624,0.86673 -0.13029,1.73305 -0.1949,2.59962 -0.0654,0.85483 -0.12477,1.7101 -0.18332,2.56541 -0.057,0.84754 -0.10993,1.69532 -0.16114,2.54322 -0.0494,0.83597 -0.0958,1.67211 -0.13938,2.50841 -0.0416,0.81109 -0.0816,1.62228 -0.11807,2.43361 -0.0362,0.77483 -0.0683,1.54983 -0.10101,2.32481 -0.0295,0.71933 -0.0545,1.43884 -0.0789,2.15836 -0.0195,0.64105 -0.044,1.28188 -0.0726,1.92258 -0.0245,0.58031 -0.0528,1.1604 -0.0826,1.74045 -0.0285,0.53412 -0.0597,1.06809 -0.0894,1.60213 -0.0257,0.5051 -0.0543,1.01 -0.0837,1.51489 -0.0289,0.46787 -0.0542,0.93591 -0.0784,1.40403 -0.0246,0.44833 -0.0395,0.89703 -0.0532,1.34579 -0.015,0.42865 -0.0342,0.85712 -0.0521,1.28565 -0.0194,0.42826 -0.0367,0.8566 -0.0521,1.28502 -0.0152,0.42375 -0.0302,0.84751 -0.0441,1.2713 -0.0146,0.42823 -0.0352,0.85623 -0.0547,1.28426 -0.0186,0.43252 -0.0352,0.86512 -0.0509,1.29776 -0.0152,0.42901 -0.0308,0.858 -0.0442,1.28707 -0.0151,0.41741 -0.0341,0.83467 -0.0496,1.25207 -0.014,0.39869 -0.0316,0.79721 -0.0535,1.19554 -0.0201,0.3831 -0.038,0.76631 -0.0548,1.14956 -0.0164,0.36456 -0.0347,0.72904 -0.0519,1.09356 -0.0161,0.354 -0.0293,0.70811 -0.0431,1.0622 -0.01,0.33631 -0.0267,0.67232 -0.0448,1.00827 -0.0171,0.31771 -0.0306,0.6356 -0.0464,0.95338 -0.014,0.29597 -0.0293,0.59189 -0.0425,0.88791 -0.0125,0.27457 -0.0298,0.5489 -0.0463,0.82325 -0.0122,0.20355 -0.0253,0.40704 -0.0364,0.61065 0,0 -9.53655,5.50593 -9.53655,5.50593 v 0 c 0.0188,-0.20654 0.0352,-0.41329 0.0525,-0.61995 0.0228,-0.27703 0.047,-0.55406 0.061,-0.83171 0.0176,-0.29788 0.0334,-0.59586 0.0524,-0.89366 0.0195,-0.32054 0.0418,-0.6409 0.0605,-0.96149 0.0192,-0.33741 0.0362,-0.67492 0.0521,-1.0125 0.0171,-0.3559 0.0353,-0.71173 0.0525,-1.06762 0.0172,-0.36553 0.0348,-0.73105 0.0567,-1.09634 0.0233,-0.3856 0.0461,-0.77122 0.0676,-1.15692 0.021,-0.3999 0.043,-0.79974 0.0609,-1.19981 0.0216,-0.41915 0.0413,-0.83841 0.0594,-1.25772 0.0153,-0.42946 0.0293,-0.85897 0.0464,-1.28835 0.0169,-0.43274 0.0338,-0.86547 0.0516,-1.29816 0.0165,-0.42701 0.036,-0.85389 0.0491,-1.28102 0.0149,-0.42431 0.0297,-0.84863 0.0468,-1.27286 0.0173,-0.42813 0.0334,-0.8563 0.0511,-1.28442 0.0193,-0.42999 0.0396,-0.85993 0.0595,-1.2899 0.0181,-0.4512 0.0405,-0.90218 0.0657,-1.35304 0.0252,-0.47156 0.0566,-0.94274 0.0947,-1.41344 0.038,-0.50837 0.0722,-1.017 0.10275,-1.52587 0.0338,-0.53756 0.0683,-1.07507 0.10704,-1.61229 0.0424,-0.58613 0.0812,-1.17249 0.11509,-1.75918 0.0393,-0.64852 0.078,-1.29708 0.11294,-1.94586 0.0405,-0.72679 0.0804,-1.45362 0.11744,-2.1806 0.0392,-0.77905 0.0806,-1.55798 0.12198,-2.33691 0.0449,-0.81451 0.0879,-1.62912 0.13519,-2.4435 0.0481,-0.83792 0.0957,-1.67587 0.14824,-2.51353 0.0523,-0.84876 0.10608,-1.69744 0.1655,-2.54573 0.059,-0.85613 0.12107,-1.71204 0.18719,-2.56765 0.0689,-0.86885 0.13838,-1.73765 0.20687,-2.60653 0.0707,-0.89054 0.14682,-1.78064 0.21511,-2.67136 0.069,-0.88866 0.13846,-1.77728 0.20171,-2.66636 0.0643,-0.86791 0.12452,-1.7361 0.18481,-2.604299 0.0604,-0.837723 0.12165,-1.675386 0.1829,-2.513054 0.0613,-0.798933 0.12371,-1.597768 0.18712,-2.396532 0.0549,-0.725615 0.10896,-1.451655 0.13138,-2.179146 0.0162,-0.612608 0.026,-1.226372 -0.0177,-1.838182 -0.0404,-0.47708 -0.0946,-0.955492 -0.23488,-1.415304 -0.11915,-0.354845 -0.26043,-0.705184 -0.5098,-0.990998 -0.20719,-0.217122 -0.43943,-0.394982 -0.73343,-0.477443 -0.26186,-0.07103 -0.5301,-0.108858 -0.80189,-0.10952 -0.24131,-0.0013 -0.48327,0.0047 -0.72191,0.0442 -0.18975,0.03402 -0.3772,0.07929 -0.55462,0.156582 -3.82284,1.652543 12.54505,-7.563229 9.24971,-5.354094 -0.0507,0.04064 -0.10054,0.08413 -0.13723,0.13833 0,0 -9.64333,5.56758 -9.64333,5.56758 z"
       inkscape:connector-curvature="0" />
    <path
       style="fill:#cc0000;fill-opacity:1;stroke-width:0.26458332"
       id="path60-6-7"
       d="m 149.29648,87.545206 c 0.0482,-0.05972 0.10747,-0.109291 0.16792,-0.156053 3.18363,-2.116246 6.42224,-4.239255 9.94362,-5.727183 0.16801,-0.07095 0.34535,-0.110103 0.52459,-0.139239 0.23009,-0.03439 0.46306,-0.03432 0.69502,-0.02868 0.26866,0.0039 0.53374,0.04348 0.79225,0.115085 0.29144,0.08421 0.51589,0.264847 0.70962,0.491193 0.23337,0.300733 0.35436,0.660605 0.45538,1.022417 0.12032,0.475161 0.1518,0.965157 0.16955,1.453019 0.014,0.628241 -0.0229,1.255971 -0.0596,1.882819 -0.0422,0.737396 -0.11366,1.472593 -0.18127,2.207953 -0.0784,0.803999 -0.1504,1.608599 -0.21681,2.413674 -0.0674,0.840891 -0.13581,1.681705 -0.19987,2.522858 -0.0663,0.87109 -0.13393,1.742075 -0.20017,2.613168 -0.0664,0.890947 -0.14034,1.781307 -0.21131,2.67189 -0.0701,0.88876 -0.13895,1.777613 -0.20677,2.666543 -0.0624,0.86673 -0.13029,1.73305 -0.1949,2.59962 -0.0654,0.85483 -0.12477,1.7101 -0.18332,2.56541 -0.057,0.84754 -0.10993,1.69532 -0.16114,2.54322 -0.0494,0.83597 -0.0958,1.67211 -0.13938,2.50841 -0.0416,0.81109 -0.0816,1.62228 -0.11807,2.43361 -0.0362,0.77483 -0.0683,1.54983 -0.10101,2.32481 -0.0295,0.71934 -0.0545,1.43885 -0.0789,2.15836 -0.0195,0.64106 -0.044,1.28188 -0.0726,1.92259 -0.0245,0.5803 -0.0528,1.1604 -0.0826,1.74045 -0.0285,0.53412 -0.0597,1.06809 -0.0894,1.60213 -0.0257,0.5051 -0.0543,1.00999 -0.0837,1.51489 -0.0289,0.46787 -0.0542,0.93591 -0.0784,1.40403 -0.0246,0.44832 -0.0395,0.89703 -0.0532,1.34579 -0.015,0.42864 -0.0342,0.85712 -0.0521,1.28565 -0.0194,0.42826 -0.0367,0.85659 -0.0521,1.28502 -0.0152,0.42374 -0.0302,0.8475 -0.0441,1.2713 -0.0146,0.42823 -0.0352,0.85623 -0.0547,1.28426 -0.0186,0.43252 -0.0352,0.86511 -0.0509,1.29776 -0.0152,0.42901 -0.0308,0.858 -0.0442,1.28706 -0.0151,0.41742 -0.0341,0.83468 -0.0496,1.25208 -0.014,0.39869 -0.0316,0.7972 -0.0535,1.19553 -0.0201,0.38311 -0.038,0.76631 -0.0548,1.14957 -0.0164,0.36456 -0.0347,0.72903 -0.0519,1.09356 -0.0161,0.354 -0.0293,0.70811 -0.0431,1.0622 -0.01,0.3363 -0.0267,0.67231 -0.0448,1.00827 -0.0171,0.31771 -0.0306,0.63559 -0.0464,0.95338 -0.014,0.29597 -0.0293,0.59189 -0.0425,0.88791 -0.0125,0.27457 -0.0298,0.54889 -0.0463,0.82325 -0.0122,0.20355 -0.0253,0.40704 -0.0364,0.61065 0,0 -9.53655,5.50593 -9.53655,5.50593 v 0 c 0.0188,-0.20654 0.0352,-0.41329 0.0525,-0.61996 0.0228,-0.27702 0.047,-0.55405 0.061,-0.8317 0.0176,-0.29788 0.0334,-0.59586 0.0524,-0.89366 0.0195,-0.32054 0.0418,-0.6409 0.0605,-0.96149 0.0192,-0.33741 0.0362,-0.67492 0.0521,-1.0125 0.0171,-0.3559 0.0353,-0.71173 0.0525,-1.06762 0.0172,-0.36553 0.0348,-0.73105 0.0567,-1.09635 0.0233,-0.38559 0.0461,-0.77121 0.0676,-1.15691 0.021,-0.3999 0.043,-0.79975 0.0609,-1.19981 0.0216,-0.41915 0.0413,-0.83842 0.0594,-1.25772 0.0153,-0.42947 0.0293,-0.85897 0.0464,-1.28836 0.0169,-0.43274 0.0338,-0.86546 0.0516,-1.29816 0.0165,-0.427 0.036,-0.85389 0.0491,-1.28102 0.0149,-0.4243 0.0297,-0.84863 0.0468,-1.27286 0.0173,-0.42813 0.0334,-0.8563 0.0511,-1.28442 0.0193,-0.42999 0.0396,-0.85993 0.0595,-1.28989 0.0181,-0.4512 0.0405,-0.90218 0.0657,-1.35304 0.0252,-0.47157 0.0566,-0.94274 0.0947,-1.41345 0.038,-0.50837 0.0722,-1.017 0.10275,-1.52587 0.0338,-0.53756 0.0683,-1.07506 0.10704,-1.61228 0.0424,-0.58613 0.0812,-1.1725 0.11509,-1.75918 0.0393,-0.64852 0.078,-1.29708 0.11294,-1.94586 0.0405,-0.72679 0.0804,-1.45363 0.11744,-2.1806 0.0392,-0.77905 0.0806,-1.55799 0.12198,-2.33691 0.0449,-0.81452 0.0879,-1.62913 0.13519,-2.4435 0.0481,-0.83793 0.0957,-1.67588 0.14824,-2.51354 0.0523,-0.84876 0.10608,-1.69744 0.1655,-2.54573 0.059,-0.85613 0.12107,-1.71204 0.18719,-2.56765 0.0689,-0.86885 0.13838,-1.73765 0.20687,-2.60653 0.0707,-0.89054 0.14682,-1.78064 0.21511,-2.67136 0.069,-0.88866 0.13846,-1.77728 0.20171,-2.66636 0.0643,-0.8679 0.12452,-1.736093 0.18481,-2.604293 0.0604,-0.837723 0.12165,-1.675386 0.1829,-2.513054 0.0613,-0.798933 0.12371,-1.597768 0.18712,-2.396532 0.0549,-0.725615 0.10896,-1.451655 0.13138,-2.179146 0.0162,-0.612608 0.026,-1.226372 -0.0177,-1.838182 -0.0404,-0.47708 -0.0946,-0.955492 -0.23488,-1.415304 -0.11915,-0.354845 -0.26043,-0.705184 -0.5098,-0.990998 -0.20719,-0.217122 -0.43943,-0.394982 -0.73343,-0.477443 -0.26186,-0.07103 -0.5301,-0.108858 -0.80189,-0.10952 -0.24131,-0.0013 -0.48327,0.0047 -0.72191,0.0442 -0.18975,0.03402 -0.3772,0.07929 -0.55462,0.156582 -3.82284,1.652543 12.54505,-7.563229 9.24971,-5.354094 -0.0507,0.04064 -0.10054,0.08413 -0.13723,0.13833 0,0 -9.64333,5.56758 -9.64333,5.56758 z"
       inkscape:connector-curvature="0" />
    <path
       style="fill:#cc0000;fill-opacity:1;stroke-width:0.26458332"
       id="path60-6-7-5"
       d="m 81.601919,88.573105 c 0.0482,-0.05972 0.10747,-0.109291 0.16792,-0.156053 3.18363,-2.116246 6.42224,-4.239255 9.94362,-5.727183 0.16801,-0.07095 0.34535,-0.110103 0.52459,-0.139239 0.23009,-0.03439 0.46306,-0.03432 0.69502,-0.02868 0.26866,0.0039 0.53374,0.04348 0.79225,0.115085 0.29144,0.08421 0.51589,0.264847 0.70962,0.491193 0.23337,0.300733 0.35436,0.660605 0.45538,1.022417 0.12032,0.475161 0.1518,0.965157 0.16955,1.453019 0.014,0.628241 -0.0229,1.255971 -0.0596,1.882819 -0.0422,0.737396 -0.11366,1.472593 -0.18127,2.207953 -0.0784,0.803999 -0.1504,1.608599 -0.21681,2.413674 -0.0674,0.840891 -0.13581,1.681705 -0.19987,2.522858 -0.0663,0.87109 -0.13393,1.742075 -0.20017,2.613168 -0.0664,0.890947 -0.14034,1.781307 -0.21131,2.671892 -0.0701,0.888762 -0.13895,1.777612 -0.20677,2.666542 -0.0624,0.86673 -0.13029,1.73305 -0.1949,2.59962 -0.0654,0.85483 -0.12477,1.7101 -0.18332,2.56541 -0.057,0.84754 -0.10993,1.69532 -0.16114,2.54322 -0.0494,0.83597 -0.0958,1.67211 -0.13938,2.50841 -0.0416,0.81109 -0.0816,1.62228 -0.11807,2.43361 -0.0362,0.77483 -0.0683,1.54983 -0.10101,2.32481 -0.0295,0.71934 -0.0545,1.43885 -0.0789,2.15836 -0.0195,0.64106 -0.044,1.28188 -0.0726,1.92259 -0.0245,0.5803 -0.0528,1.1604 -0.0826,1.74045 -0.0285,0.53412 -0.0597,1.06809 -0.0894,1.60213 -0.0257,0.5051 -0.0543,1.00999 -0.0837,1.51489 -0.0289,0.46787 -0.0542,0.93591 -0.0784,1.40403 -0.0246,0.44832 -0.0395,0.89703 -0.0532,1.34579 -0.015,0.42864 -0.0342,0.85712 -0.0521,1.28565 -0.0194,0.42826 -0.0367,0.85659 -0.0521,1.28502 -0.0152,0.42374 -0.0302,0.8475 -0.0441,1.2713 -0.0146,0.42823 -0.0352,0.85623 -0.0547,1.28426 -0.0186,0.43252 -0.0352,0.86511 -0.0509,1.29776 -0.0152,0.42901 -0.0308,0.858 -0.0442,1.28706 -0.0151,0.41742 -0.0341,0.83468 -0.0496,1.25208 -0.014,0.39869 -0.0316,0.7972 -0.0535,1.19553 -0.0201,0.38311 -0.038,0.76631 -0.0548,1.14957 -0.0164,0.36456 -0.0347,0.72903 -0.0519,1.09356 -0.0161,0.354 -0.0293,0.70811 -0.0431,1.0622 -0.01,0.3363 -0.0267,0.67231 -0.0448,1.00827 -0.0171,0.31771 -0.0306,0.63559 -0.0464,0.95338 -0.014,0.29597 -0.0293,0.59189 -0.0425,0.88791 -0.0125,0.27457 -0.0298,0.54889 -0.0463,0.82325 -0.0122,0.20355 -0.0253,0.40704 -0.0364,0.61065 0,0 -9.53655,5.50593 -9.53655,5.50593 v 0 c 0.0188,-0.20654 0.0352,-0.41329 0.0525,-0.61996 0.0228,-0.27702 0.047,-0.55405 0.061,-0.8317 0.0176,-0.29788 0.0334,-0.59586 0.0524,-0.89366 0.0195,-0.32054 0.0418,-0.6409 0.0605,-0.96149 0.0192,-0.33741 0.0362,-0.67492 0.0521,-1.0125 0.0171,-0.3559 0.0353,-0.71173 0.0525,-1.06762 0.0172,-0.36553 0.0348,-0.73105 0.0567,-1.09635 0.0233,-0.38559 0.0461,-0.77121 0.0676,-1.15691 0.021,-0.3999 0.043,-0.79975 0.0609,-1.19981 0.0216,-0.41915 0.0413,-0.83842 0.0594,-1.25772 0.0153,-0.42947 0.0293,-0.85897 0.0464,-1.28836 0.0169,-0.43274 0.0338,-0.86546 0.0516,-1.29816 0.0165,-0.427 0.036,-0.85389 0.0491,-1.28102 0.0149,-0.4243 0.0297,-0.84863 0.0468,-1.27286 0.0173,-0.42813 0.0334,-0.8563 0.0511,-1.28442 0.0193,-0.42999 0.0396,-0.85993 0.0595,-1.28989 0.0181,-0.4512 0.0405,-0.90218 0.0657,-1.35304 0.0252,-0.47157 0.0566,-0.94274 0.0947,-1.41345 0.038,-0.50837 0.0722,-1.017 0.10275,-1.52587 0.0338,-0.53756 0.0683,-1.07506 0.10704,-1.61228 0.0424,-0.58613 0.0812,-1.1725 0.11509,-1.75918 0.0393,-0.64852 0.078,-1.29708 0.11294,-1.94586 0.0405,-0.72679 0.0804,-1.45363 0.11744,-2.1806 0.0392,-0.77905 0.0806,-1.55799 0.12198,-2.33691 0.0449,-0.81452 0.0879,-1.62913 0.13519,-2.4435 0.0481,-0.83793 0.0957,-1.67588 0.14824,-2.51354 0.0523,-0.84876 0.10608,-1.69744 0.1655,-2.54573 0.059,-0.85613 0.12107,-1.71204 0.18719,-2.56765 0.0689,-0.86885 0.13838,-1.73765 0.20687,-2.60653 0.0707,-0.89054 0.14682,-1.78064 0.21511,-2.67136 0.069,-0.88866 0.13846,-1.77728 0.20171,-2.66636 0.0643,-0.8679 0.12452,-1.73609 0.18481,-2.604292 0.0604,-0.837725 0.12165,-1.675388 0.1829,-2.513056 0.0613,-0.798933 0.12371,-1.597768 0.18712,-2.396532 0.0549,-0.725615 0.10896,-1.451655 0.13138,-2.179146 0.0162,-0.612608 0.026,-1.226372 -0.0177,-1.838182 -0.0404,-0.47708 -0.0946,-0.955492 -0.23488,-1.415304 -0.11915,-0.354845 -0.26043,-0.705184 -0.5098,-0.990998 -0.20719,-0.217122 -0.43943,-0.394982 -0.73343,-0.477443 -0.26186,-0.07103 -0.5301,-0.108858 -0.80189,-0.10952 -0.24131,-0.0013 -0.48327,0.0047 -0.72191,0.0442 -0.18975,0.03402 -0.3772,0.07929 -0.55462,0.156582 -3.82284,1.652543 12.54505,-7.563229 9.24971,-5.354094 -0.0507,0.04064 -0.10054,0.08413 -0.13723,0.13833 0,0 -9.64333,5.56758 -9.64333,5.56758 z"
       inkscape:connector-curvature="0" />
    <path
       style="fill:#cc0000;fill-opacity:1;stroke-width:0.26458332"
       id="path124"
       d="m 90.852404,91.485932 c 0.05086,-0.05465 0.105247,-0.105921 0.158707,-0.158002 0.08522,-0.08252 0.176063,-0.15858 0.267262,-0.234293 0.11615,-0.09662 0.233581,-0.191733 0.353442,-0.283715 0.14264,-0.107015 0.288126,-0.210164 0.435264,-0.31088 0.165153,-0.11425 0.334632,-0.222008 0.504157,-0.329594 0.170821,-0.110083 0.346044,-0.213072 0.520002,-0.318062 3.345498,-1.963655 6.685314,-3.939652 10.079802,-5.817241 0.18015,-0.09921 0.361,-0.197142 0.54162,-0.2955 0.18573,-0.100672 0.37021,-0.20359 0.5573,-0.301727 0.18934,-0.09937 0.37875,-0.198622 0.56879,-0.29664 0.18444,-0.09495 0.37078,-0.186157 0.55682,-0.277918 0.16762,-0.08249 0.33465,-0.166169 0.50381,-0.245471 0.16052,-0.07429 0.3219,-0.146864 0.48561,-0.213862 0.14935,-0.06394 0.3051,-0.109561 0.46376,-0.143206 0.14052,-0.02934 0.28414,-0.0267 0.42611,-0.01213 0.13963,0.01747 0.27603,0.05408 0.41013,0.09577 0.13887,0.04395 0.26904,0.107401 0.39305,0.183026 0.12897,0.08186 0.24706,0.178827 0.36103,0.280119 0.12288,0.109357 0.23485,0.230037 0.3439,0.352956 0.12063,0.134005 0.22778,0.279013 0.32874,0.428154 0.11583,0.170164 0.21552,0.350706 0.31013,0.533314 0.10974,0.205167 0.19619,0.421003 0.27632,0.639041 0.0862,0.243206 0.14014,0.495559 0.18622,0.74888 0.049,0.283333 0.0733,0.569789 0.0871,0.856719 0.0129,0.308584 0.005,0.617462 -0.002,0.926071 -0.007,0.31935 -0.0275,0.638098 -0.0515,0.956546 -0.0235,0.335464 -0.0546,0.670361 -0.091,1.004659 -0.038,0.351291 -0.0797,0.702198 -0.12385,1.052759 -0.0464,0.367573 -0.0908,0.735363 -0.14157,1.102361 -0.053,0.380146 -0.10869,0.75991 -0.16556,1.139492 -0.0545,0.373462 -0.11107,0.746593 -0.16819,1.119658 -0.052,0.35904 -0.10811,0.717436 -0.16443,1.075815 -0.0507,0.342526 -0.108,0.684029 -0.16284,1.025913 -0.0509,0.31872 -0.10173,0.63744 -0.15155,0.956326 -0.0464,0.305965 -0.0978,0.611159 -0.14685,0.916715 -0.0459,0.288976 -0.0894,0.578321 -0.13289,0.867662 -0.0419,0.272873 -0.0772,0.546706 -0.11872,0.819626 -0.0406,0.259785 -0.0809,0.519615 -0.11938,0.779717 -0.0361,0.24374 -0.0709,0.48769 -0.10558,0.73163 -0.0318,0.2286 -0.0615,0.45748 -0.0921,0.68624 -0.0301,0.21432 -0.0644,0.42804 -0.0962,0.64212 -0.0337,0.20385 -0.0683,0.40756 -0.10284,0.61127 -0.0299,0.19318 -0.0656,0.38538 -0.10162,0.57748 -0.0324,0.18059 -0.0645,0.36119 -0.10134,0.54093 -0.0358,0.17192 -0.0685,0.34445 -0.10247,0.51674 -0.0294,0.16244 -0.0623,0.32415 -0.0966,0.48563 -0.034,0.15344 -0.0656,0.30739 -0.0964,0.4615 -0.0296,0.14978 -0.0654,0.29818 -0.10263,0.4462 -0.0357,0.14866 -0.0828,0.2943 -0.13606,0.4375 -0.0576,0.15122 -0.13176,0.29527 -0.20749,0.43801 -0.0804,0.15053 -0.17462,0.29295 -0.27037,0.43401 -0.1018,0.14485 -0.20975,0.28521 -0.32109,0.42281 -0.11733,0.14698 -0.23968,0.2898 -0.36554,0.42952 -0.13701,0.1486 -0.27732,0.29419 -0.41836,0.43897 -0.14546,0.1499 -0.29596,0.2946 -0.44731,0.43849 -0.15324,0.14275 -0.31061,0.28109 -0.47134,0.41534 -0.16469,0.13531 -0.33513,0.26333 -0.50554,0.39128 -0.17128,0.12665 -0.34354,0.25194 -0.51534,0.37787 -0.16907,0.12229 -0.33904,0.24331 -0.51131,0.36104 -0.17263,0.11885 -0.34736,0.23457 -0.52303,0.34885 -0.17954,0.11898 -0.36252,0.23257 -0.54484,0.34718 -0.18248,0.11269 -0.36561,0.22431 -0.54859,0.3362 -0.17482,0.10716 -0.34969,0.21424 -0.52315,0.32357 -0.17153,0.10852 -0.33898,0.22326 -0.50532,0.33952 -0.16358,0.11777 -0.32509,0.23846 -0.483916,0.36257 -0.161506,0.12726 -0.31946,0.25893 -0.479362,0.38817 -0.160936,0.1296 -0.322824,0.25801 -0.485146,0.38587 -0.160454,0.1263 -0.323785,0.24876 -0.487795,0.37039 -0.163414,0.12056 -0.331238,0.23499 -0.500943,0.34647 -0.108804,0.0717 -0.21956,0.1403 -0.330806,0.20808 0,0 -9.558182,5.51842 -9.558182,5.51842 v 0 c 0.112347,-0.0684 0.224208,-0.13772 0.334138,-0.21001 0.170337,-0.11183 0.338957,-0.22638 0.502827,-0.34756 0.164219,-0.12199 0.328047,-0.24443 0.488809,-0.37097 0.162682,-0.12769 0.324394,-0.2566 0.485612,-0.38613 0.159052,-0.12881 0.31632,-0.25983 0.476899,-0.38675 0.1588,-0.1242 0.320309,-0.24493 0.483996,-0.36262 0.166285,-0.11636 0.333923,-0.23086 0.505355,-0.33954 0.175115,-0.11023 0.351547,-0.21834 0.528018,-0.32638 0.184043,-0.11245 0.368222,-0.22468 0.55172,-0.33801 0.181001,-0.11378 0.362584,-0.22664 0.54077,-0.34483 0.175371,-0.11397 0.34964,-0.22962 0.521926,-0.34822 0.172967,-0.11813 0.343592,-0.23961 0.5134,-0.36223 0.172387,-0.12607 0.345062,-0.25175 0.516793,-0.37871 0.169576,-0.12737 0.339119,-0.25488 0.502866,-0.38974 0.160768,-0.13427 0.318189,-0.27258 0.471426,-0.4154 0.151019,-0.14314 0.300447,-0.28787 0.44528,-0.43731 0.138597,-0.14352 0.27706,-0.28728 0.411298,-0.43489 0.123811,-0.13839 0.243066,-0.28063 0.358954,-0.42572 0.109242,-0.13713 0.21596,-0.27629 0.316361,-0.42008 0.0948,-0.1401 0.187755,-0.28173 0.266415,-0.43172 0.07361,-0.14201 0.146686,-0.28468 0.202232,-0.43498 0.05139,-0.14346 0.09809,-0.28857 0.134547,-0.43663 0.03796,-0.14789 0.07239,-0.29671 0.102861,-0.44633 0.03363,-0.15465 0.06635,-0.30948 0.100671,-0.46398 0.03721,-0.16244 0.07068,-0.32559 0.102631,-0.48914 0.03458,-0.1735 0.07217,-0.3464 0.107629,-0.51972 0.03689,-0.18123 0.07184,-0.36281 0.107227,-0.54434 0.03688,-0.19351 0.07595,-0.38662 0.107824,-0.58106 0.03515,-0.20485 0.07381,-0.40908 0.107804,-0.61413 0.03456,-0.2154 0.06927,-0.43077 0.103322,-0.64625 0.03221,-0.23073 0.06675,-0.46114 0.10125,-0.69154 0.03611,-0.24576 0.07412,-0.49124 0.113896,-0.73644 0.04212,-0.2613 0.08427,-0.52259 0.126572,-0.78386 0.04341,-0.27478 0.08355,-0.55005 0.127541,-0.82473 0.04593,-0.29147 0.0939,-0.58263 0.143129,-0.87357 0.05126,-0.30694 0.104408,-0.61358 0.153953,-0.92081 0.05141,-0.32138 0.105501,-0.64233 0.162661,-0.96274 0.06017,-0.34385 0.119141,-0.68788 0.174354,-1.03256 0.05806,-0.360062 0.115051,-0.720272 0.17243,-1.08044 0.05895,-0.374054 0.117109,-0.74822 0.173424,-1.12268 0.05782,-0.378462 0.113099,-0.757343 0.161479,-1.137139 0.0467,-0.365498 0.0906,-0.73133 0.13293,-1.097367 0.0405,-0.348708 0.0782,-0.697712 0.11379,-1.046957 0.0327,-0.332774 0.0622,-0.665877 0.0823,-0.999683 0.0193,-0.317246 0.0372,-0.634606 0.0443,-0.952405 0.005,-0.307104 0.0108,-0.614534 -0.006,-0.921419 -0.0197,-0.284086 -0.0492,-0.567793 -0.1027,-0.847725 -0.052,-0.250509 -0.11278,-0.499402 -0.20253,-0.739469 -0.0822,-0.216753 -0.175165,-0.429549 -0.287836,-0.632387 -0.100825,-0.179423 -0.206629,-0.356386 -0.326632,-0.523788 -0.106926,-0.145599 -0.214593,-0.29094 -0.339556,-0.421911 -0.110873,-0.122096 -0.225995,-0.240691 -0.350296,-0.349265 -0.117114,-0.09909 -0.2358,-0.196476 -0.367098,-0.276611 -0.124928,-0.07506 -0.255927,-0.139075 -0.395874,-0.181395 -0.134511,-0.04227 -0.271684,-0.0772 -0.411812,-0.09481 -0.139978,-0.01375 -0.281148,-0.01952 -0.42001,0.0086 -0.154828,0.03097 -0.306645,0.07438 -0.452129,0.136493 -0.16205,0.06572 -0.321552,0.137556 -0.480322,0.210806 -0.165986,0.07785 -0.330108,0.159547 -0.494732,0.240228 -0.183075,0.08992 -0.366416,0.179349 -0.547776,0.272699 -0.190348,0.09816 -0.380068,0.19755 -0.569669,0.297145 -0.1871,0.09819 -0.371623,0.201101 -0.557386,0.301777 -0.182087,0.09926 -0.364409,0.198078 -0.54609,0.298078 -3.792992,2.098641 12.628478,-7.324051 9.027268,-5.21423 -0.17442,0.105228 -0.35007,0.208514 -0.52135,0.318843 -0.16634,0.105721 -0.33273,0.211471 -0.49455,0.324048 -0.14233,0.09787 -0.28287,0.198363 -0.42071,0.302476 -0.11427,0.08899 -0.22657,0.180522 -0.33701,0.274227 -0.0836,0.07088 -0.16699,0.141932 -0.24348,0.220566 -0.0482,0.04943 -0.0966,0.09876 -0.14365,0.149304 0,0 -9.632067,5.561077 -9.632067,5.561077 z"
       inkscape:connector-curvature="0" />
    <path
       style="fill:#cc0000;fill-opacity:1;stroke-width:0.26458332"
       id="path181"
       d="m 103.72399,109.73217 c 0.0622,-0.009 0.12503,-0.0115 0.18774,-0.0103 0.11912,0.003 0.23813,0.0105 0.35686,0.0204 0.15692,0.0134 0.31397,0.0251 0.47068,0.0409 0.17262,0.017 0.34198,0.0529 0.50752,0.10398 0.18661,0.0547 0.35225,0.15302 0.5044,0.2718 0.17377,0.1443 0.29878,0.3326 0.41691,0.52245 0.13467,0.22295 0.24771,0.45785 0.35814,0.69345 0.11772,0.25402 0.2219,0.51416 0.32215,0.7755 0.10295,0.27494 0.19412,0.55412 0.28436,0.83344 0.0874,0.28303 0.17049,0.56736 0.24675,0.85358 0.0777,0.29282 0.14314,0.58886 0.20402,0.88561 0.063,0.29283 0.10908,0.58891 0.15102,0.88537 0.0406,0.2994 0.0626,0.60084 0.0786,0.90242 0.0185,0.30949 0.0274,0.6194 0.0325,0.92937 0.006,0.31645 0.002,0.6329 -0.002,0.94934 -0.002,0.32545 -0.0138,0.65066 -0.0239,0.97591 -0.01,0.33431 -0.027,0.66836 -0.0417,1.00247 -0.0155,0.34368 -0.0356,0.68713 -0.0553,1.03059 -0.0211,0.35762 -0.0493,0.71475 -0.0775,1.07185 -0.0282,0.37168 -0.0587,0.74317 -0.0898,1.11462 -0.0342,0.37801 -0.0686,0.756 -0.10207,1.13408 -0.0352,0.3781 -0.0702,0.75621 -0.10392,1.13443 -0.0313,0.37056 -0.0699,0.74042 -0.11036,1.11007 -0.0383,0.36532 -0.0793,0.73033 -0.12125,1.09524 -0.0389,0.34956 -0.0836,0.69845 -0.12696,1.04748 -0.0388,0.33389 -0.0825,0.66722 -0.12963,1.00003 -0.0485,0.32512 -0.091,0.65111 -0.13879,0.97633 -0.044,0.31529 -0.0955,0.62944 -0.14578,0.94377 -0.049,0.31245 -0.10127,0.62439 -0.15183,0.93659 -0.0487,0.30784 -0.0957,0.6159 -0.14865,0.92303 -0.0536,0.30796 -0.10743,0.61584 -0.16284,0.92347 -0.0527,0.3016 -0.10488,0.60325 -0.15923,0.90455 -0.0559,0.30374 -0.11603,0.60666 -0.1757,0.90967 -0.0617,0.29785 -0.1209,0.59621 -0.18331,0.8939 -0.0611,0.2981 -0.12845,0.59483 -0.19031,0.89277 -0.0589,0.29188 -0.11968,0.58334 -0.18016,0.87489 -0.0603,0.28609 -0.11834,0.57262 -0.17278,0.85988 -0.0534,0.28586 -0.1027,0.57249 -0.14988,0.85944 -0.0468,0.27971 -0.0909,0.55987 -0.13325,0.84028 -0.042,0.27782 -0.0799,0.55624 -0.11598,0.83488 -0.0361,0.2612 -0.0628,0.52349 -0.0899,0.78573 -0.0258,0.24501 -0.0443,0.49068 -0.0613,0.73644 -0.0133,0.22304 -0.0206,0.44651 -0.0118,0.66983 0.009,0.19497 0.0438,0.38657 0.0956,0.57429 0.0456,0.16268 0.12133,0.31119 0.22,0.44741 0.0864,0.11559 0.19659,0.20698 0.31678,0.28513 0.12204,0.0732 0.25732,0.11865 0.39423,0.15464 0.14704,0.0385 0.2982,0.0551 0.44891,0.0714 0.15474,0.0152 0.30955,0.0297 0.4645,0.0426 0.15269,0.0132 0.30558,0.024 0.45843,0.0352 0.13677,0.0105 0.27347,0.0217 0.41072,0.0208 0.0219,-0.002 0.0439,-0.003 0.0658,-0.005 0,0 -9.591787,5.53783 -9.591787,5.53783 v 0 c -0.02234,0.002 -0.04469,0.004 -0.06703,0.006 -0.134716,0.001 -0.268605,-0.0136 -0.402674,-0.0254 -0.150824,-0.0132 -0.301634,-0.0266 -0.452566,-0.0386 -0.155046,-0.0134 -0.310181,-0.0259 -0.464952,-0.0423 -0.152414,-0.0155 -0.30524,-0.0321 -0.454424,-0.0682 -0.138121,-0.035 -0.27479,-0.0789 -0.397772,-0.1526 -0.120523,-0.0768 -0.226741,-0.17166 -0.308574,-0.28987 -0.0926,-0.14028 -0.162406,-0.29339 -0.203689,-0.45682 -0.04754,-0.19132 -0.07529,-0.38626 -0.07932,-0.58366 -0.0036,-0.2265 0.0092,-0.45273 0.02679,-0.67851 0.02049,-0.24765 0.04028,-0.49539 0.07098,-0.74205 0.0289,-0.26431 0.05975,-0.52844 0.09969,-0.79135 0.03982,-0.2791 0.07862,-0.55834 0.119996,-0.8372 0.04235,-0.28079 0.08607,-0.56138 0.134746,-0.84115 0.05066,-0.28751 0.100871,-0.5751 0.154464,-0.86209 0.05384,-0.28716 0.108726,-0.57415 0.172001,-0.85942 0.06401,-0.29242 0.125183,-0.58544 0.186334,-0.87846 0.06411,-0.29718 0.126394,-0.59475 0.189298,-0.89219 0.06248,-0.29855 0.123893,-0.59732 0.186633,-0.89581 0.05985,-0.3028 0.119946,-0.60556 0.175023,-0.90927 0.05326,-0.3019 0.104932,-0.60407 0.160854,-0.90549 0.05601,-0.30767 0.113019,-0.61516 0.163427,-0.92381 0.05285,-0.30739 0.100162,-0.61565 0.149621,-0.9236 0.05153,-0.31295 0.107112,-0.62523 0.155481,-0.9387 0.04952,-0.31507 0.09875,-0.63019 0.148339,-0.94524 0.04907,-0.3263 0.09604,-0.6529 0.144021,-0.97935 0.04793,-0.33423 0.09209,-0.66898 0.136058,-1.00375 0.04575,-0.35112 0.09473,-0.70182 0.137154,-1.05336 0.04357,-0.36565 0.08603,-0.73142 0.125277,-1.09756 0.04044,-0.3702 0.07856,-0.74067 0.112819,-1.11149 0.03562,-0.37884 0.07299,-0.75752 0.107465,-1.13648 0.03108,-0.37734 0.06514,-0.75442 0.09781,-1.13162 0.02895,-0.37041 0.0611,-0.74058 0.08423,-1.11143 0.02494,-0.35535 0.04908,-0.71072 0.06817,-1.06644 0.01666,-0.34243 0.03719,-0.68468 0.04959,-1.02729 0.01374,-0.33328 0.02861,-0.66654 0.03738,-1 0.0087,-0.32434 0.01667,-0.6487 0.01918,-0.97316 0.0029,-0.31556 0.0025,-0.6311 -0.0023,-0.94665 -0.0055,-0.3093 -0.01725,-0.61851 -0.03607,-0.9273 -0.01944,-0.30085 -0.0418,-0.60157 -0.08193,-0.90052 -0.04149,-0.29683 -0.0911,-0.5924 -0.149132,-0.88646 -0.05994,-0.29667 -0.12621,-0.59224 -0.206636,-0.8841 -0.07937,-0.28503 -0.159208,-0.57001 -0.250115,-0.85163 -0.08887,-0.27969 -0.179206,-0.55911 -0.285522,-0.83278 -0.105495,-0.2587 -0.214705,-0.51599 -0.333784,-0.76878 -0.11269,-0.23436 -0.230461,-0.46691 -0.372945,-0.6849 -0.125745,-0.18663 -0.259834,-0.36986 -0.438471,-0.51 -0.157236,-0.11468 -0.32562,-0.21256 -0.514245,-0.26613 -0.169877,-0.0479 -0.343033,-0.0817 -0.51905,-0.0973 -0.159958,-0.0151 -0.320144,-0.0266 -0.480594,-0.0352 -0.129336,-0.006 -0.258962,-0.01 -0.388328,-0.002 -0.06901,0.005 -0.137552,0.0131 -0.206249,0.021 0,0 9.634938,-5.56274 9.634938,-5.56274 z"
       inkscape:connector-curvature="0" />
    <path
       style="fill:#cc0000;fill-opacity:1;stroke-width:0.26458332"
       id="path198"
       d="m 169.0373,126.06195 c -0.01,0.0703 -0.0202,0.14044 -0.0274,0.21105 -0.0169,0.11803 -0.0297,0.23655 -0.0423,0.3551 -0.0159,0.15952 -0.0281,0.31936 -0.0401,0.47922 -0.0134,0.19582 -0.0244,0.39177 -0.0335,0.58782 -0.0107,0.21976 -0.019,0.43964 -0.03,0.65939 -0.0148,0.23877 -0.0273,0.47767 -0.0395,0.71659 -0.0125,0.24613 -0.0237,0.49233 -0.0345,0.73855 -0.011,0.25184 -0.0208,0.50372 -0.0304,0.75562 -0.01,0.25351 -0.0169,0.5071 -0.0252,0.76066 -0.008,0.25009 -0.0142,0.50024 -0.0208,0.75037 -0.007,0.24519 -0.006,0.49054 -0.007,0.73581 -0.001,0.24929 -0.002,0.49858 -0.003,0.74787 -0.002,0.25217 -5.3e-4,0.50435 -0.001,0.75653 -2.6e-4,0.25447 3e-5,0.5089 -0.007,0.76329 -0.007,0.26079 -0.0128,0.52162 -0.0169,0.78248 -0.004,0.25264 -0.009,0.50525 -0.0146,0.75786 -0.006,0.25312 -0.009,0.50629 -0.0138,0.75944 -0.004,0.25034 -0.008,0.50068 -0.0119,0.75102 -0.007,0.25748 -0.003,0.5151 -5.3e-4,0.77262 0.003,0.25339 0.005,0.50681 0.008,0.7602 0.003,0.2459 0.006,0.49179 0.008,0.73769 0.002,0.23975 0.005,0.47949 0.007,0.71924 0.004,0.23107 0.004,0.46216 0.007,0.69323 0.001,0.22557 0.004,0.45112 0.005,0.67668 0.001,0.2209 0.003,0.4418 0.004,0.66269 0.001,0.21467 -0.006,0.42914 -0.0177,0.64343 -0.0111,0.21246 -0.0393,0.42339 -0.0738,0.63316 -0.0371,0.21607 -0.093,0.42815 -0.15638,0.63781 -0.068,0.22039 -0.15253,0.43503 -0.24301,0.64702 -0.0942,0.21474 -0.19695,0.42554 -0.30694,0.63257 -0.10964,0.20476 -0.22969,0.40343 -0.35554,0.59854 -0.13079,0.20271 -0.2712,0.39882 -0.41567,0.59192 -0.15054,0.19597 -0.30349,0.39007 -0.46064,0.58077 -0.16429,0.20139 -0.34178,0.39134 -0.52387,0.57659 -0.19709,0.1978 -0.40272,0.38698 -0.61076,0.57317 -0.21153,0.18704 -0.42574,0.37108 -0.64113,0.55365 -0.21266,0.18059 -0.42705,0.3591 -0.64216,0.53676 -0.20475,0.16774 -0.40872,0.33642 -0.61205,0.50588 -0.16069,0.13191 -0.32339,0.26137 -0.48628,0.39055 0,0 -9.52955,5.50189 -9.52955,5.50189 v 0 c 0.16483,-0.1301 0.32911,-0.26092 0.49177,-0.39372 0.20723,-0.17126 0.41481,-0.34209 0.62299,-0.5122 0.2159,-0.17826 0.43153,-0.35681 0.64476,-0.53826 0.21544,-0.18247 0.42979,-0.36629 0.64104,-0.55359 0.20604,-0.18433 0.4092,-0.37217 0.60345,-0.56896 0.17846,-0.18327 0.3513,-0.37208 0.51308,-0.57036 0.15654,-0.19007 0.30848,-0.38386 0.4582,-0.57935 0.14244,-0.19199 0.28174,-0.38634 0.40963,-0.58844 0.12506,-0.19563 0.24609,-0.39387 0.35573,-0.59865 0.11085,-0.20678 0.21364,-0.4178 0.30747,-0.63288 0.088,-0.21089 0.17165,-0.42375 0.23635,-0.64317 0.0617,-0.20866 0.11626,-0.41945 0.15075,-0.63456 0.0342,-0.20999 0.0646,-0.42077 0.0745,-0.63355 0.0138,-0.21489 0.0191,-0.43017 0.0212,-0.64548 -10e-4,-0.22126 -10e-4,-0.44253 -0.003,-0.66379 -0.001,-0.22615 -5.3e-4,-0.45229 -0.002,-0.67843 -2e-4,-0.23203 -0.002,-0.46405 -0.002,-0.69608 -0.001,-0.24035 -0.002,-0.4807 -0.004,-0.72105 -0.001,-0.24674 -0.002,-0.49349 -0.004,-0.74024 -7.9e-4,-0.25398 -0.004,-0.50796 -0.005,-0.76195 -0.002,-0.2569 -0.004,-0.51382 -0.003,-0.77073 0.004,-0.25049 0.008,-0.50097 0.0127,-0.75144 0.004,-0.25321 0.0103,-0.50639 0.0141,-0.75961 0.005,-0.25315 0.0101,-0.50628 0.0172,-0.75938 0.007,-0.26091 0.0137,-0.52185 0.0175,-0.78284 0.003,-0.25365 0.003,-0.50728 0.003,-0.76095 2.6e-4,-0.25219 0.002,-0.50438 0.001,-0.75657 -1.1e-4,-0.24871 -2.5e-4,-0.49742 -1.7e-4,-0.74613 2.3e-4,-0.24547 -1.9e-4,-0.49101 0.008,-0.73638 0.008,-0.25073 0.0162,-0.50142 0.024,-0.75215 0.008,-0.25366 0.0172,-0.50725 0.0256,-0.76089 0.009,-0.25133 0.0175,-0.50264 0.0274,-0.75392 0.01,-0.24555 0.0199,-0.49109 0.0311,-0.73658 0.0109,-0.23733 0.0228,-0.47461 0.0316,-0.71202 0.008,-0.21737 0.0103,-0.4349 0.0177,-0.6523 0.006,-0.1928 0.0107,-0.38563 0.0173,-0.57841 0.004,-0.15542 0.01,-0.31083 0.0174,-0.46612 0.005,-0.11347 0.0129,-0.22682 0.0167,-0.34036 0.001,-0.0669 -0.002,-0.13439 0.009,-0.20063 0,0 9.63471,-5.56261 9.63471,-5.56261 z"
       inkscape:connector-curvature="0" />
  </g>
</svg>
